<svg id="Layer_1" xmlns="http://www.w3.org/2000/svg" viewBox="0 0 703.6 399.5"><style>.st0{stroke-miterlimit:10}.st0,.st1,.st2,.st3{fill:none;stroke:#b5c2c9}.st1{stroke-linecap:round;stroke-linejoin:round}.st2,.st3{stroke-width:1;stroke-miterlimit:9.9997}.st3{stroke-linecap:round;stroke-linejoin:round;stroke-miterlimit:3.9999}</style><title>3346531</title><path class="st0" d="M210.6 38.4c0-19.9 16.1-37.8 36.1-37.8h1.2c19.9.3 35.8 16.7 35.5 36.7-.3 19.9-16.7 35.8-36.7 35.5-12.3-.2-23.8-6.4-30.6-16.7M645.2 142.9h-27.9v15.9h-23v59.9h-21.6v-80.4h-33.1V189h-5.4v-64.9h-4.6v-10.2h-6.8V76.8h-5V114h-6.7v10.2h-4.6v60.2h-9.3v-21.7h-10c-.7-8.5-7.2-15.4-15.6-16.7l-1.6-7.7M428.5 221.9h-7.7v-74.3h-35.6v87.1h-15.6v-65.4l-11-20.9-12.9 20.9v8.2M316.1 146.4h-9.5v-5.7h-7v-37.1h-5v37.2h-6.7v5.7h-9.5l-.3 55h-11v31.4h-11v-94.6H223v93.4h-5.4V124.2H213V114h-18.5v10.2h-4.6v82.2H170v-21.7h-10c-.7-8.5-7.2-15.4-15.6-16.7h-5.5c-8.4 1.3-14.9 8.2-15.6 16.7h-10v21.2H95.8v-49.1H49.7v82.1"/><path class="st1" d="M668.9 150.1l-17.1 26.7H686zM696.7 307.1L686 176.8M641.1 307.1l10.7-130.3M696.7 307.1h-55.6l-6.4 12.9h68.4zM651.4 181.8h35"/><path class="st1" d="M664.6 172.5v-6.4s0-4.3 4.3-4.3 4.3 4.3 4.3 4.3v6.4h-8.6zM664.6 170.4h8.6M634.7 320h68.4v8.5h-68.4z"/><path class="st0" d="M458.8 170.3h17.7v158.2h-17.7zM442.7 236.2h8v92.3h8.1V183.1h-16.1z"/><path class="st0" d="M452.3 183.1h6.5v-12.8H470v-37h-17.7z"/><path class="st0" d="M444.3 133.3h16.1v-32.2l-9.7-17.7h-6.4zM434.7 160.6h8v22.5h9.6v-36.9h-17.6zM444.3 56.1v27.3h6.4z"/><path class="st0" d="M437.8 133.3h14.5v12.9h-14.5zM428.2 160.6h14.5v75.6h-14.5zM452.3 104.3h8.1M452.3 110.8h8.1M452.3 117.2h8.1M452.3 123.6h8.1M458.8 142.9H470M458.8 149.4H470M458.8 155.8H470M458.8 162.3H470M463.6 178.4h12.9M463.6 184.8h12.9M463.6 191.2h12.9M463.6 197.6h12.9M463.6 204.1h12.9M463.6 210.5h12.9M463.6 216.9h12.9M463.6 223.4h12.9M463.6 229.8h12.9M463.6 197.6h12.9M428.2 167.1h9.6M428.2 173.5h9.6M428.2 179.9h9.6M428.2 186.4h9.6M428.2 192.8h9.6M428.2 199.3h9.6M428.2 205.7h9.6M428.2 212.1h9.6M428.2 218.6h9.6M428.2 186.4h9.6M428.2 242.7h9.6M428.2 249.1h9.6M428.2 255.6h9.6M428.2 262h9.6M428.2 262h9.6"/><path class="st1" d="M203.8 268l33.5-41.8 34.5 43.2M285.6 286.5l19.8 24.8M306.8 328.5H155.4M237.3 226.2l17.2 47.4M237.3 323.6c-.4 1.6-.5 3.3-.3 5H66.2l-8.1-30.4 84.9-106 97 121.2s-2 6.7-2.7 10.2zM143 192.1l49.6 136.4M62.2 311.9h49.9M58.9 297.3h57.4M70.7 282.7h49.7M81.9 268.1h42.7M93.9 253.5h34.9M105.8 238.9h27.1M117.3 224.3h19.8M128.8 209.7h12.5M325.5 194.3h8.1v-19.4c0-4.5-3.6-8.1-8.1-8.1"/><path class="st1" d="M333.6 186.3v-19.4c0-4.5-3.6-8.1-8.1-8.1"/><path class="st1" d="M333.6 178.2v-19.4c0-4.5-3.6-8.1-8.1-8.1"/><path class="st1" d="M333.6 171.7v-19.4c0-4.5-3.6-8.1-8.1-8.1"/><path class="st1" d="M330.4 145.7v-4.8c0-2.6-2.2-4.8-4.9-4.8M328.6 137.2l-3-56.9M325.6 194.3h12.9v134.2h-12.9M338.5 328.5h6.5V199.2h-6.5"/><path class="st1" d="M333.6 153.9l4.9 8.1v11.3l3.2 3.2v22.7M338.5 207.3h3.2M338.5 215.3h3.2M338.5 223.4h3.2M338.5 231.5h3.2M338.5 239.6h3.2M338.5 247.6h3.2M338.5 255.7h3.2M338.5 263.8h3.2M338.5 271.9h3.2M338.5 280h3.2M338.5 288.1h3.2M338.5 296.1h3.2M327.2 328.6V200.8c0-1.8 1.4-3.2 3.2-3.2 1.8 0 3.2 1.4 3.2 3.2v127.7M325.6 171.7h.1c1.7 0 3.1 1.4 3.1 3.2v19.4M325.5 194.3h-8.1v-19.4c0-4.5 3.6-8.1 8.1-8.1"/><path class="st1" d="M317.4 186.3v-19.4c0-4.5 3.6-8.1 8.1-8.1"/><path class="st1" d="M317.4 178.2v-19.4c0-4.5 3.6-8.1 8.1-8.1"/><path class="st1" d="M317.4 171.7v-19.4c0-4.5 3.6-8.1 8.1-8.1"/><path class="st1" d="M320.6 145.7v-4.8c0-2.6 2.2-4.8 4.9-4.8M322.5 137.2l3.1-56.9M325.6 194.3h-13v134.2h13M312.6 328.5h-6.4V199.2h6.4"/><path class="st1" d="M317.5 153.9l-4.9 8.1v11.3l-3.2 3.2v22.7M312.6 207.3h-3.2M312.6 215.3h-3.2M312.6 223.4h-3.2M312.6 231.5h-3.2M312.6 239.6h-3.2M312.6 247.6h-3.2M312.6 255.7h-3.2M312.6 263.8h-3.2M312.6 271.9h-3.2M312.6 280h-3.2M312.6 288.1h-3.2M312.6 296.1h-3.2M323.9 328.6V200.8c0-1.8-1.4-3.2-3.2-3.2-1.8 0-3.2 1.4-3.2 3.2v127.7M325.5 171.7h-.1c-1.7 0-3.1 1.4-3.1 3.2v19.4M414.7 292.5h8.8c2.4.1 4.1 2.1 4 4.5 0 3.8-3 3.8-4.5 3.8-.8 0-2.3-.7-2.3-3v-.1c.1-1.3 1.1-2.2 2.3-2.2.7.1 1.2.6 1.3 1.3.1.9-.5 1.6-1.3 1.7"/><path class="st1" d="M422.3 292.5h-8.8c-2.4.1-4.2 2.1-4.1 4.5 0 3.8 3 3.8 4.5 3.8.8 0 2.3-.7 2.3-3v-.1c-.1-1.3-1.1-2.2-2.3-2.2-.7.1-1.2.6-1.3 1.3-.1.9.5 1.6 1.3 1.7M414.6 300.8l-1.5 24.2h10.6l-1.5-24.2M413.4 321.3h10.1M413.8 318.7h9.2M393 292.5h8.8c2.4.1 4.1 2.1 4 4.5 0 3.8-3 3.8-4.5 3.8-.8 0-2.3-.7-2.3-3v-.1c.1-1.3 1.1-2.2 2.3-2.2.7.1 1.2.6 1.3 1.3.1.9-.5 1.6-1.3 1.7"/><path class="st1" d="M400.5 292.5h-8.8c-2.4.1-4.1 2.1-4 4.5 0 3.8 3 3.8 4.5 3.8.8 0 2.3-.7 2.3-3v-.1c-.1-1.3-1.1-2.2-2.3-2.2-.7.1-1.2.6-1.3 1.3-.1.9.5 1.6 1.3 1.7M393 300.8l-1.5 24.2h10.6l-1.6-24.2M391.7 321.3h10.1M392.1 318.7h9.3M371.3 292.5h8.8c2.4.1 4.1 2.1 4 4.5 0 3.8-3 3.8-4.5 3.8-.8 0-2.3-.7-2.3-3v-.1c.1-1.3 1.1-2.2 2.3-2.2.7.1 1.2.6 1.3 1.3.1.9-.5 1.6-1.3 1.7"/><path class="st1" d="M378.8 292.5H370c-2.4.1-4.1 2.1-4 4.5 0 3.8 3 3.8 4.5 3.8.8 0 2.3-.7 2.3-3v-.1c-.1-1.3-1.1-2.2-2.3-2.2-.7.1-1.2.6-1.3 1.3-.1.9.5 1.6 1.3 1.7M371.3 300.8l-1.5 24.2h10.6l-1.5-24.2M370.1 321.3h10M370.4 318.7h9.3M349.6 292.5h8.8c2.4.1 4.1 2.1 4 4.5 0 3.8-3 3.8-4.5 3.8-.8 0-2.3-.7-2.3-3v-.1c.1-1.3 1.1-2.2 2.3-2.2.7.1 1.2.6 1.3 1.3.1.9-.5 1.6-1.3 1.7"/><path class="st1" d="M357.2 292.5h-8.8c-2.4.1-4.1 2.1-4 4.5 0 3.8 3 3.8 4.5 3.8.8 0 2.3-.7 2.3-3v-.1c-.1-1.3-1.1-2.2-2.3-2.2-.7.1-1.2.6-1.3 1.3-.1.9.5 1.6 1.3 1.7M349.6 300.8l-1.5 24.2h10.6l-1.5-24.2M348.4 321.3h10.1M348.7 318.7h9.3M342.4 326.8c0-1 .7-1.8 1.7-1.7h83.6c.9 0 1.7.8 1.7 1.7 0 .9-.8 1.7-1.7 1.7h-83.6c-.9 0-1.7-.8-1.7-1.7zM339 330.2c0-1 .7-1.7 1.7-1.7h90.5c.9 0 1.7.8 1.7 1.7 0 .9-.8 1.7-1.7 1.7h-90.5c-.9 0-1.7-.8-1.7-1.7zM336.7 333.6c0-.9.7-1.7 1.7-1.7h95.1c.9 0 1.7.8 1.7 1.7 0 .9-.8 1.7-1.7 1.7h-95.1c-.9 0-1.7-.8-1.7-1.7zM345 282.2l40.7-27.5 56.2 37.8H345z"/><path class="st1" d="M344.6 287.9l41.1-27.7 41.2 27.7zM385.7 287.9v-27.7M405.3 287.9v-14.6M366.2 287.9v-14.6M243.8 329.7V343h47.3v-13.3"/><path class="st1" d="M267.5 284h16.2c3 3 14.8 39.8 14.8 42.8v.1c-.1 1.6-1.4 2.8-3 2.8H266M286 288.4h-18.5"/><path class="st1" d="M267.5 267.8c2.9 0 22.1 10.3 22.1 13.3v.1c-.1 1.6-1.4 2.8-3 2.8h-19.1M267.4 284h-16.2c-3 3-14.8 39.8-14.8 42.8v.1c.1 1.6 1.4 2.8 3 2.8h29.5M248.9 288.4h18.6"/><path class="st1" d="M267.3 267.8c-2.9 0-22.1 10.3-22.1 13.3v.1c.1 1.6 1.4 2.8 3 2.8h19.2M263.1 342.9v-4.4c0-2.4 2-4.4 4.4-4.4s4.4 2 4.4 4.4v4.5M271.9 338.6h19.2M243.9 338.6H263M260.1 308.9h5.9v-4.4c0-1.6-1.4-2.9-3-2.9s-2.9 1.4-2.9 3v4.3zM246.5 324.1h5.9v-4.4c0-1.6-1.4-2.9-3-2.9s-2.9 1.4-2.9 3v4.3z"/><circle class="st1" cx="267.5" cy="278.1" r="3"/><path class="st1" d="M253.7 235.6c1.3 2.7 13.8 42.5 13.8 42.5s-23.2-34.8-24.5-37.4.7-5.2 3.4-6.5 6-1.3 7.3 1.4zM246.4 234.2l19.2 39.9M243.7 242l5.3-2.5M246.9 247.1l4.6-2.2M250.2 252l3.9-1.8M253.5 257l3.1-1.5"/><circle class="st1" cx="267.5" cy="278.1" r="3"/><path class="st1" d="M225 291.8c2.7-1.3 42.5-13.8 42.5-13.8s-34.8 23.2-37.4 24.5-5.2-.7-6.5-3.4c-1.3-2.6-1.3-6 1.4-7.3zM223.6 299.1l39.9-19.1M231.4 301.8l-2.5-5.2M236.4 298.6l-2.2-4.6M241.4 295.4l-1.9-3.9M246.4 292.1l-1.5-3.2"/><circle class="st1" cx="267.5" cy="278.1" r="3"/><path class="st1" d="M281.2 320.5c-1.3-2.6-13.8-42.4-13.8-42.4s23.2 34.8 24.5 37.4-.7 5.2-3.4 6.5c-2.7 1.3-6 1.1-7.3-1.5zM288.5 322l-19.1-39.9M291.2 314.2l-5.2 2.5M288 309.1l-4.6 2.2M284.7 304.1l-3.9 1.9M281.5 299.2l-3.2 1.5"/><circle class="st1" cx="267.5" cy="278.1" r="3"/><path class="st1" d="M309.9 264.3c-2.7 1.2-42.5 13.8-42.5 13.8s34.8-23.2 37.4-24.5 5.2.7 6.5 3.4c1.3 2.7 1.3 6.1-1.4 7.3zM311.3 257l-39.8 19.2M303.5 254.4l2.5 5.2M298.5 257.6l2.2 4.5M293.5 260.8l1.9 3.9M288.5 264.1l1.6 3.2"/><path class="st0" d="M44.8 248.4l31 115.6h-43L4.7 259.2zM11.3 283.8l40.1-10.7M10.5 280.8L50.6 270"/><path class="st0" d="M41.3 272.4l-2.9-10.8c-.4-1.7.6-3.4 2.3-3.9 1.7-.4 3.4.6 3.9 2.3l2.9 10.8M32.1 274.9l-2.9-10.8c-.4-1.7.6-3.4 2.3-3.9 1.7-.4 3.4.6 3.9 2.3l2.9 10.8M22.8 277.4l-2.9-10.8c-.4-1.7.6-3.4 2.3-3.9 1.7-.4 3.4.6 3.9 2.3l2.9 10.8M13.6 279.9l-2.9-10.8c-.4-1.7.6-3.4 2.3-3.9 1.7-.4 3.4.6 3.9 2.3l2.9 10.8M30.9 252.1L28 241.3c-.4-1.7.6-3.4 2.3-3.9 1.7-.4 3.4.6 3.9 2.3l2.9 10.8M21.6 254.6l-2.9-10.8c-.4-1.7.6-3.4 2.3-3.9 1.7-.4 3.4.6 3.9 2.3l2.9 10.8M12.4 257l-2.9-10.8c-.4-1.7.6-3.4 2.3-3.9 1.7-.4 3.4.6 3.9 2.3l2.9 10.8M16.7 303.9l40.1-10.8M15.9 300.8L56 290.1M46.7 292.5l-2.9-10.8c-.4-1.7.6-3.4 2.3-3.9 1.7-.4 3.4.6 3.9 2.3l2.9 10.8M37.4 295l-2.9-10.8c-.4-1.7.6-3.4 2.3-3.9 1.7-.4 3.4.6 3.9 2.3l2.9 10.8M28.2 297.5l-2.9-10.8c-.4-1.7.6-3.4 2.3-3.9 1.7-.4 3.4.6 3.9 2.3l2.9 10.8M18.9 299.9L16 289.1c-.4-1.7.6-3.4 2.3-3.9 1.7-.4 3.4.6 3.9 2.3l2.9 10.8M22.1 323.9l40.1-10.7M21.3 320.9l40-10.8M52.1 312.5l-2.9-10.8c-.4-1.7.6-3.4 2.3-3.9 1.7-.4 3.4.6 3.9 2.3l2.9 10.8M42.8 315l-2.9-10.8c-.4-1.7.6-3.4 2.3-3.9 1.7-.4 3.4.6 3.9 2.3l2.9 10.8M33.5 317.5l-2.9-10.8c-.4-1.7.6-3.4 2.3-3.9 1.7-.4 3.4.6 3.9 2.3l2.9 10.8M24.3 320l-2.9-10.8c-.4-1.7.6-3.4 2.3-3.9 1.7-.4 3.4.6 3.9 2.3l2.9 10.8M27.4 344l40.1-10.8M26.6 340.9l40.1-10.8M57.4 332.6l-2.9-10.8c-.4-1.7.6-3.4 2.3-3.9 1.7-.4 3.4.6 3.9 2.3l2.9 10.8M48.2 335.1l-2.9-10.8c-.4-1.7.6-3.4 2.3-3.9 1.7-.4 3.4.6 3.9 2.3l2.9 10.8M38.9 337.5L36 326.7c-.4-1.7.6-3.4 2.3-3.9 1.7-.4 3.4.6 3.9 2.3l2.9 10.8M29.7 340l-2.9-10.8c-.4-1.7.6-3.4 2.3-3.9 1.7-.4 3.4.6 3.9 2.3l2.9 10.8M32.8 364l40.1-10.7M32 360.9l40.1-10.7M62.8 352.6l-2.9-10.8c-.4-1.7.6-3.4 2.3-3.9 1.7-.4 3.4.6 3.9 2.3L69 351M53.5 355.1l-2.9-10.8c-.4-1.7.6-3.4 2.3-3.9 1.7-.4 3.4.6 3.9 2.3l2.9 10.8M44.3 357.6l-2.9-10.8c-.4-1.7.6-3.4 2.3-3.9 1.7-.4 3.4.6 3.9 2.3l2.9 10.8M35 360.1l-2.9-10.8c-.4-1.7.6-3.4 2.3-3.9 1.7-.4 3.4.6 3.9 2.3l2.9 10.8M5.6 262.3l40-10.8"/><path transform="rotate(-14.999 22.582 245.29)" class="st2" d="M5 236.5h35.1v17.6H5z"/><path class="st1" d="M3.3 241.4l33.9-9.1.3-5-37 9.9z"/><path transform="rotate(-14.999 18.608 230.687)" class="st3" d="M1.1 229.1h35.1v3.2H1.1z"/><path class="st1" d="M30.4 219.2l-8.6-1 6.9-5.1 3.3 12.3M504.4 307.3h115.7L634 342H490.5z"/><path class="st1" d="M528.8 307.3h66.9L606 342h-87.5zM562.3 286.5h67.1c-9.3-4.7-9.3-9.3-9.3-9.3h-57.8M562.2 272.6h62.5c-9.3-4.6-16.2-16.2-16.2-16.2h-46.2M562.2 307.3h57.9v-20.8M620.1 272.6v4.6M601.6 256.4c0-4.6 6.9-6.9 6.9-6.9v6.9M562.2 286.5h-67.1c9.3-4.7 9.3-9.3 9.3-9.3h57.8M562.2 272.6h-62.5c9.3-4.6 16.2-16.2 16.2-16.2h46.3M562.2 307.3h-57.8v-20.8M504.4 272.6v4.6M522.9 256.4c0-4.6-6.9-6.9-6.9-6.9v6.9"/><path class="st1" d="M549.3 307.3h25.9l6 34.7h-37.8zM597.4 313.1h25M599.1 318.9h25.5M600.8 324.7H627M602.6 330.5h26.7M604.3 336.2h27.4M527.1 313.1h-25M525.3 318.9h-25.5M523.6 324.7h-26.2M521.9 330.5h-26.8M520.2 336.2h-27.4M576.2 313.1h-27.9M577.2 318.9h-29.8M578.2 324.7h-31.9M579.2 330.5h-33.9M580.2 336.2h-35.9"/><path class="st1" d="M561.1 290h4.6v17.4h-4.6zM560 286.5h6.9v3.5H560zM577.3 290h4.6v17.4h-4.6zM576.2 286.5h6.9v3.5h-6.9zM593.5 290h4.6v17.4h-4.6zM592.4 286.5h6.9v3.5h-6.9zM609.7 290h4.6v17.4h-4.6zM608.6 286.5h6.9v3.5h-6.9zM542.6 290h4.6v17.4h-4.6zM541.5 286.5h6.9v3.5h-6.9zM526.4 290h4.6v17.4h-4.6zM525.3 286.5h6.9v3.5h-6.9zM510.2 290h4.6v17.4h-4.6zM509.1 286.5h6.9v3.5h-6.9zM130.5 138.1l-2.3 14.9-2.3-1.4c-1.4-1-2.2-2.7-2-4.4.2-2.2.2-9.4.2-13.2l-5.1-3.1s-4.7-3.5-3.2-5.9 6.7.2 6.7.2l5.1 3.2c3.4-1.7 9.9-5 11.7-6.1 1.5-.9 3.3-1 4.8-.2l2.3 1.4-12.3 8.9.2.1c3.5 2.2 9.2 7.5 9.2 7.5l4.1-1.7 2.7 1.6-3.9 3.8-1.6 5.2-2.7-1.6-.3-4.4s-7.3-2.6-10.9-4.8h-.4z"/><path class="st0" d="M586.6 83.2c.7 0 1.3 0 2 .2.4-3.5 3.4-6.2 7-6.2.4 0 .7 0 1.1.1.3-2.5 1.7-4.7 3.9-6 3.8-2.2 8.7-.9 10.9 2.9 3.5-1.7 7.6-1.1 10.4 1.6 1.1-.9 2.4-1.4 3.8-1.5 3.6-.2 6.7 2.5 6.9 6.1.3-.1.7-.1 1-.1 4.4 0 8 3.6 8 8-.1.7-.1 1.3-.3 2h-63.5c.9-4.1 4.6-7 8.8-7.1zM222.8 49c-.7 0-1.3 0-2 .2-.4-3.5-3.4-6.2-7-6.2-.4 0-.7 0-1.1.1-.3-2.5-1.7-4.7-3.9-6-3.8-2.2-8.7-.9-10.9 2.9-3.5-1.7-7.6-1.1-10.4 1.6-1.1-.9-2.4-1.4-3.8-1.5-3.6-.2-6.7 2.5-6.9 6.1-.3-.1-.7-.1-1-.1-4.4 0-8 3.6-8 8 .1.7.1 1.3.3 2h63.5c-.9-4.1-4.6-7-8.8-7.1zM357.5 85.2c-.1-.3-.1-.6-.1-.9 0-1.3.4-2.5 1.1-3.6 2-3 6.1-3.9 9.2-1.9 1.2-2.1 3.2-3.6 5.5-4.2v-.7c.2-4.6 3.8-8.2 8.4-8.4 4.8-.1 8.8 3.6 9 8.4v.6c.6-.1 1.1-.2 1.7-.2 4.7.1 8.6 3.6 9 8.3 3.4 0 6.2 2.5 6.6 5.8h-55.1c1.1-1.7 2.9-2.9 4.7-3.2zM71 82.3c0-.7.1-1.4.3-2.1 1.2-3.7 5.1-5.8 8.8-4.6 2-4.4 6.5-7.3 11.4-7.3 6.9 0 12.5 5.6 12.5 12.5 0 .5 0 1.1-.1 1.6.5-.1 1.1-.1 1.6-.1 5.3 0 9.5 4.3 9.5 9.5v.5H60.1c.5-5.7 5.2-10 10.9-10zM508.3 26.1c0-.7-.1-1.4-.3-2.1-1.2-3.7-5.1-5.8-8.8-4.6-2.1-4.4-6.5-7.3-11.4-7.3-6.9 0-12.5 5.6-12.5 12.5 0 .5 0 1.1.1 1.6-.5-.1-1.1-.1-1.6-.1-5.3 0-9.5 4.3-9.5 9.5v.5h54.9c-.6-5.7-5.3-10-10.9-10z"/><path class="st1" d="M375.1 348.7h208M418.2 353.6H540M455.1 359h48M133.3 374h208M176.4 379h121.8M213.3 384.3h48M157.2 356.5h123.3M181.4 350.8h74.9M520.1 384.3h179.6M535.1 391.6h149.6M550.1 399h119.6"/></svg>