<svg id="Layer_1" xmlns="http://www.w3.org/2000/svg" viewBox="0 0 75.02 25.4"><style>.st0{fill:none}.st1{fill:#ef443d}.st2{fill:#44444f}</style><path class="st0" d="M65.44 3.54c-7.16-.35-7.12 13.79 0 13.47 7.15.32 7.19-13.81 0-13.47zM42.56 3.54c-7.16-.35-7.12 13.79 0 13.47 7.15.32 7.19-13.81 0-13.47z"/><path class="st1" d="M26.55.27c-1.32-.02-2.2.85-2.18 2.16v15.71c-.01 1.33.85 2.2 2.18 2.18 1.33.01 2.2-.85 2.18-2.18V2.42c.02-1.3-.87-2.17-2.18-2.15zM19.55 2.42c.02-1.23-.83-2.17-2.07-2.16-2.3-.43-6.52 10.94-7.67 12.21C8.57 11.18 4.47-.17 2.08.27.84.25-.01 1.2.01 2.42v15.9c-.17 2.63 4 2.6 3.84 0V8.58c6.04 11.85 6.01 11.43 11.87-.14.21 1.07-.53 10.73.53 11.34 1.17 1.16 3.46.34 3.3-1.46V2.42zM65.44.16c-12.78-.75-12.76 20.97 0 20.24 12.76.73 12.78-21 0-20.24zm0 16.85c-7.12.32-7.16-13.82 0-13.47 7.19-.34 7.15 13.79 0 13.47z"/><path class="st2" d="M47.67 1.39c-9.21-5.24-18.41 5.4-13.57 14.24 3.78 7.43 9.76 1.54 12.54 8.64 2.5 2.87 5.64-.28 2.86-3.16-.56-.91-1.3-1.51-2.21-1.79 6.5-3.09 6.59-14.49.38-17.93zm-5.11 15.62c-7.12.32-7.16-13.82 0-13.47 7.19-.34 7.15 13.79 0 13.47z"/></svg>