<svg id="Layer_1" xmlns="http://www.w3.org/2000/svg" viewBox="0 0 5449.5 3633"><style>.st0{opacity:.02}.st1{fill:#fff}</style><title>shutterstock_1223985628sdf</title><g class="st0"><path class="st1" d="M4096.7 3633h16.6c80.5-54.5 164.8-90.2 262.3-82.5 76.8 6 138 38.7 192 82.5h15.3c-57.4-48.6-122.7-85.8-206.6-92.3-103.7-8-194.7 33.2-279.6 92.3zM3135.3 3537.6c-85.3 19.3-164.7 53.9-240.5 95.4h20.7c70.3-37.3 143.7-68.1 221.9-85.8 105.8-23.9 163.5 22.5 213 85.8h12.4c-51.3-67.1-113.3-121.1-227.5-95.4z"/><path class="st1" d="M4394.3 3405.1c-163.2-16.4-291.5 97-415.6 206.8-8 7.1-16 14.1-24 21.2h14.9l15.6-13.8c128.2-113.4 249.4-220.5 408.1-204.4 133.5 13.5 217 104.3 305.4 200.3 5.5 6 11 11.9 16.5 17.9h13.4c-7.6-8.2-15.2-16.3-22.7-24.5-85.8-93.3-174.4-189.6-311.6-203.5zM3448.3 3535c-56.3-76.1-114.5-154.7-254.8-116-150 41.4-279.5 128.8-404.5 214h17.4c120.7-82.1 246-164.8 389.7-204.5 133.6-37 187.4 35.6 244.3 112.3 24.4 32.9 49.1 66.3 80.5 92.2h16.4c-35.6-26.2-62.6-62.3-89-98zM5361.5 3633h26.9c20.4-8 40.8-15.7 61.1-22.9v-10.3c-28.8 9.9-57 21-85.1 32l-2.9 1.2z"/><path class="st1" d="M4719.3 3483.9c-86.5-94-175.9-191.2-312.7-209-149.8-19.7-260.3 82.1-377.4 189.9-69 63.5-139.6 128.5-220.1 168.3h21.2c74.6-40.6 140.8-101.4 205.6-161 115.3-106.2 224.1-206.4 369.4-187.5 133.3 17.4 217.5 109 306.8 206 46.6 50.7 94.1 102.2 149.6 142.5h17c-59.7-41-110-95.6-159.4-149.2z"/><path class="st1" d="M5049.7 3581.8c-140.1-23.3-231.8-122.3-320.5-217.9-87.9-94.8-178.7-192.8-315.6-214.2-143.1-22.4-249.6 76.4-362.5 180.8-93.5 86.5-190.1 176-310.4 193.4-123.7 18.2-183.6-51-241.4-117.8-60.3-69.6-122.7-141.6-255.7-99.7-142.3 44.9-265.4 131.8-384.5 215.8-53.5 37.8-107.8 76-164.2 110.7h18.6c51.8-32.6 101.8-67.8 151.2-102.7 118.5-83.6 241-170 381.8-214.4 126.9-40.1 184.4 26.4 245.3 96.7 59.6 68.8 121.2 139.8 250.2 121.1 123.4-17.9 221.2-108.4 315.7-195.9 111.2-102.8 216.1-200 354.3-178.4 133.6 20.9 219.3 113.3 310 211.1 89.8 96.9 182.6 197 326.1 220.9 120.4 20.1 223.9-14.1 323.9-47.2 26-8.6 51.7-17.1 77.5-24.6v-10.1c-27.3 7.8-54.1 16.6-80.7 25.4-98.8 32.9-201.1 66.7-319.1 47z"/><path class="st1" d="M3288.6 3209.3c120.8-43.6 183.4 19 249.8 85.2 62.9 62.7 127.9 127.5 245.2 101.3 90-20.1 176-95.1 267-174.4 116.5-101.5 236.8-206.6 363-181.9 136.2 26.6 227.6 123.6 315.9 217.5 88.9 94.4 180.9 192.1 319.3 221.9 119.8 25.9 224.3-2.2 325.3-29.2 25.3-6.8 50.3-13.5 75.3-19.3v-10c-26.2 6.1-52.1 13-77.8 19.9-99.9 26.8-203.2 54.4-320.7 29.1-135.4-29.2-226.3-125.7-314.2-219-89.5-95-182-193.2-321.2-220.4-130.7-25.5-253.1 81.1-371.4 184.2-90 78.5-175.1 152.7-262.6 172.2-112.2 25-175.1-37.8-236.1-98.6-65.6-65.4-133.3-133.1-260-87.5-130 46.8-244.3 131.2-354.8 212.7-118.4 87.3-240.4 177.1-381.6 220.2h31.3c130.7-46.3 245-130.4 356-212.4 110-81.3 223.7-165.2 352.3-211.5zM2239.2 3589l-29.1-5.2c-119.3-21.4-205.5-36.8-332.6-18.1-89.6 13.3-178.7 37.6-266.9 67.3h31.3c78.5-25.3 157.7-45.8 237-57.6 125.5-18.6 211-3.2 329.4 18l29.1 5.2c42.5 7.5 67.1 21.5 88.2 34.4h18.8c-3-1.8-5.9-3.6-9-5.5-22.7-14.1-48.7-30.1-96.2-38.5z"/><path class="st1" d="M5049.4 3359.2c-130.2-33.8-223.1-131.2-313-225.2-97.4-102-189.4-198.3-324.3-219.5-126-19.9-234.5 76.9-339.4 170.4-81.2 72.4-165.2 147.3-257.9 170.3-106.4 26.4-172.1-29.8-235.6-84.3-68.6-58.9-139.5-119.7-259.6-71.7-120.6 48.3-226.3 130.2-328.5 209.4-126.2 97.8-256.6 198.8-415.3 236.3-97.3 22.9-207.4-.2-324-24.6-107.5-22.6-218.7-45.9-319.5-29.9-158.8 25.1-316.2 82.8-469.4 142.7h27.2c145.3-56.4 294.1-109.4 443.8-133 99.1-15.7 209.4 7.4 316 29.8 117.7 24.7 228.8 48 328.2 24.6 160.8-37.9 292.1-139.7 419.1-238.1 101.7-78.8 206.8-160.3 326.1-208 114.6-45.9 180.2 10.4 249.6 70 65.3 56.1 132.8 114.1 244.3 86.4 95-23.6 179.9-99.3 262.1-172.5 108-96.2 210-187 331.4-168 131.6 20.7 222.5 115.8 318.7 216.6 90.8 95 184.7 193.3 317.6 227.9 119.4 31 225.4 9.1 328-12.2 25.1-5.2 49.9-10.3 74.7-14.7v-9.9c-25.9 4.5-51.4 9.8-76.7 15-101.6 20.9-206.5 42.6-323.6 12.2z"/><path class="st1" d="M2300.9 3446.6c118.3 18.9 240.5 38.5 344.4 11.9 156.6-40.1 281.7-142.1 402.8-240.9 94.1-76.8 191.5-156.2 302.4-205 109.1-48 177.4 2.3 249.7 55.5 67.5 49.7 137.3 100.9 243.1 72.2 87.6-23.9 166.3-95.4 242.3-164.6 103-93.6 200.2-182.3 317.1-162.2 133.6 22.8 227.5 118.9 327 220.5 90.8 92.8 184.6 188.8 312.6 227 119.2 35.7 227.2 19.5 331.7 3.9 25-3.8 50.1-7.5 75.5-10.6v-9.9c-25.9 3.1-51.5 6.9-77 10.7-103.4 15.5-210.3 31.6-327.5-3.5-125.5-37.6-218.5-132.6-308.3-224.5-100.6-102.9-195.6-200-332.3-223.4-121.6-20.7-225.2 73.5-325.4 164.6-75.2 68.4-152.9 139.1-238.3 162.4-101.3 27.6-169.1-22.3-234.7-70.6-71.4-52.6-145.3-107-259.5-56.6-112.2 49.4-210 129.2-304.6 206.4-120.2 98-244.5 199.4-399.1 239-101.9 26.1-223.2 6.7-340.4-12.1-108.8-17.4-221.2-35.4-321.8-18.6-177.7 29.6-353.6 97.6-523.6 163.3-44.6 17.2-89.6 34.6-134.8 51.4h28.1c37-13.9 73.8-28.1 110.3-42.2 169.6-65.6 345-133.4 521.8-162.8 98.8-16.5 210.5 1.4 318.5 18.7zM0 3633h22.3c-7.5-1.9-14.9-3.8-22.3-5.6v5.6zM0 3545.3v10.1c43.2 10.8 86.1 22 128.7 33.1 58 15.1 116.5 30.3 175.2 44.5h42.8c-72.2-16.7-144.2-35.4-215.5-54-43.4-11.3-87.2-22.7-131.2-33.7z"/><path class="st1" d="M5392.8 3146.4c-40.8 2.2-76.2 7.2-110.4 12-79 11.1-147.3 20.7-244.1-11.6-121.2-40.4-214.2-132.9-304.2-222.4-104.3-103.7-202.8-201.7-341.8-226.7-117.7-21.2-216.4 70.8-311.9 159.7-69.7 64.9-141.7 132-220.8 155.5-96.5 28.6-166.2-15.1-233.6-57.5-74-46.5-150.6-94.6-259.6-42.2-104.7 50.3-195.4 128.3-283.1 203.8-114.1 98.2-232.1 199.8-382.3 241.4-106.4 29.4-233.2 14.4-355.9-.1-109.3-12.9-222.2-26.3-322.2-8.9-176.5 30.7-351.7 96.5-521.1 160.2-117.6 44.2-237.4 89.2-359.6 123.3h35.4c111.1-32.9 220.3-73.8 327.6-114.1 169-63.5 343.8-129.2 519.3-159.7 98.6-17.1 210.8-3.9 319.4 9 123.7 14.6 251.5 29.7 359.7-.2 152.3-42.1 271.1-144.4 386.1-243.4 87.2-75.1 177.4-152.7 281-202.5 104.2-50 175.1-5.5 250.2 41.7 69.2 43.5 140.8 88.4 241.6 58.6 81.2-24.1 154.1-92 224.6-157.7 98-91.3 190.4-177.5 303.4-157.2 136 24.5 233.5 121.4 336.6 224 90.8 90.3 184.6 183.6 308 224.8 99 33 168.3 23.3 248.6 12 34-4.8 69.2-9.7 109.6-11.9 19.8-1.1 38.4-1.5 56.2-1.5v-9.8c-18-.1-36.8.3-56.7 1.4z"/><path class="st1" d="M2060.9 3293.4c95.9-17.2 205.9-7.2 312.3 2.4 131.3 12 267.1 24.3 380.5-13.6 144.9-48.5 255.6-147.8 362.6-243.8 82.7-74.2 168.2-151 268-202 99.2-50.7 172.1-12.3 249.3 28.4 70.9 37.4 144.2 76.1 241.4 45.7 81.3-25.5 149.1-91.6 214.7-155.5 89.2-86.9 173.4-169 284.7-149.5 137.9 24.1 239.5 122.2 347 226 91.1 88 185.3 178.9 304.4 222 98.4 35.7 169 28.9 250.8 21.2 34.1-3.2 69.5-6.6 109.7-7.1 22.3-.3 43.3 0 63.4 1v-9.9c-20.2-.9-41.2-1.2-63.5-.8-40.6.6-76.1 3.9-110.5 7.2-80.6 7.6-150.2 14.2-246.5-20.7-117.1-42.4-210.5-132.6-300.9-219.8-108.7-104.9-211.3-204-352.2-228.6-116.5-20.4-202.3 63.4-293.3 152.2-64.8 63.1-131.7 128.4-210.8 153.2-93.3 29.2-164.7-8.5-233.9-45-76-40.1-154.5-81.5-258.3-28.5-100.9 51.5-186.9 128.8-270 203.4-106.2 95.4-216.1 194-359.1 241.8-111.4 37.3-246.2 25-376.5 13.2-107-9.7-217.7-19.8-314.9-2.3-173.3 31.1-345.2 94.4-511.5 155.7-207.2 76.3-421.4 155.2-642.8 174.2-252.2 21.6-515.9-47.7-770.9-114.8-44.4-12-89.1-23.7-134.1-35.1v10.1c44.1 11.2 88.1 22.7 131.6 34.2 223.2 58.7 453 119.1 676.6 119.1 32.7 0 65.2-1.3 97.6-4.1 222.7-19.1 437.6-98.2 645.4-174.7 165.8-61 337.3-124.2 509.7-155.2z"/><path class="st1" d="M5267.4 2973.2c-82.5 4.3-153.7 8-250-29.1-113.3-43.7-206.9-131-297.4-215.4-108.3-101-220.2-205.4-364.2-230.6-113.8-20-194.9 62-280.9 148.7-60.2 60.8-122.5 123.7-197.3 148.7-89.5 30-162.2-2.2-232.5-33.2-78.1-34.5-158.9-70.2-258.6-15.3-95.1 52.3-175.2 128.4-252.6 202.1-100.3 95.3-203.9 193.9-341.9 243.2-114.7 41-254.6 32.5-389.8 24.3-106.3-6.5-216.3-13.2-312.4 4.6-169.5 31.3-337.8 91.9-500.4 150.6-209.5 75.5-426.1 153.6-650.3 171.2-263.1 20.7-537.8-52.7-803.3-123.6-44.9-12-90.3-24.1-135.8-35.8v10.1c44.7 11.5 89.2 23.4 133.3 35.2 235.2 62.8 477.4 127.5 713.2 127.5 31.3 0 62.4-1.2 93.4-3.6 225.5-17.7 442.8-96 652.9-171.8 162.3-58.5 330.1-119 498.9-150.2 95-17.5 204.3-10.9 310-4.4 136.2 8.3 277.1 16.9 393.7-24.8 140-50 244.4-149.3 345.4-245.3 77-73.2 156.6-148.9 250.6-200.6 95.5-52.5 170.5-19.4 249.9 15.7 72 31.8 146.4 64.7 239.6 33.6 77-25.7 140.1-89.4 201.1-151 84-84.8 163.6-164.9 272.2-145.9 141.2 24.7 247.1 123.5 359.3 228.2 91.2 85.1 185.5 173 300.5 217.4 98.2 37.8 170.4 34.1 254 29.7 34.4-1.8 69.8-3.6 110-2.8 25.3.5 49 1.9 71.6 3.9v-9.9c-22.5-2-46.1-3.3-71.3-3.8-40.6-1.3-76.3.6-110.9 2.4z"/><path class="st1" d="M5449.5 2891.2c-25.4-3.2-51.9-5.7-80.3-7.2-40.4-2.1-76.4-1.6-111.1-1.1-84.7 1.2-157.9 2.2-254.4-36.7-109.9-44.4-203.5-128.6-294.1-210.1-113-101.7-229.9-206.8-377.6-231.9-111.8-18.9-188.2 61.1-269 145.9-56.2 59-114.2 119.9-185.5 145.2-86.3 30.6-159.8 3.7-230.9-22.2-80-29.2-162.7-59.3-258.9-2.7-90 53-164.6 128.3-236.8 201.2-94.3 95.1-191.7 193.5-325 244.3-117.8 44.9-262.4 39.7-402.3 34.7-105-3.7-213.6-7.6-308.4 10.2-165.4 31.1-329.5 89.1-488.2 145.1-211.4 74.6-430.1 151.8-656.8 167.7-273.6 19.3-558.4-58.5-833.8-133.6-45.2-12.3-90.7-24.7-136.5-36.8v10.1c44.9 11.9 89.6 24 133.9 36.1 247.2 67.4 501.9 136.9 750 136.9 29.1 0 58.2-1 87.1-3 228-16 447.3-93.4 659.4-168.3 158.3-55.9 322-113.7 486.7-144.6 93.7-17.7 201.7-13.8 306.2-10.1 140.9 5 286.5 10.2 406.1-35.4 135.3-51.5 233.5-150.7 328.5-246.5 71.7-72.4 145.9-147.3 234.7-199.6 92.3-54.3 169.2-26.3 250.6 3.4 72.8 26.6 148.1 54 237.6 22.3 73.6-26.1 132.4-87.9 189.4-147.7 78.9-82.9 153.4-161.4 260.3-143 144.9 24.6 255.5 124.2 372.7 229.5 91.2 82 185.5 166.8 297 211.8 98.4 39.7 172.5 38.6 258.3 37.5 34.6-.5 70.4-1 110.5 1.1 28.6 1.5 55.2 4 80.8 7.3v-9.8z"/><path class="st1" d="M0 3233c45.7 12.4 91.3 25.1 136.5 37.7 259.3 72.5 526.6 147.1 786.5 147.1 25.4 0 50.8-.7 76.1-2.2 230.7-13.7 451.8-90.2 665.6-164.2 153.7-53.2 312.6-108.2 472.6-138.7 92.2-17.6 198.4-16.1 301.1-14.6 145 2 295 4.2 417.4-45.3 130.8-52.9 222.9-151.8 311.9-247.5 66.8-71.8 135.9-146.1 220.3-199 89.4-56.1 168.1-32.9 251.3-8.3 73.3 21.7 149.1 44 235.5 11.7 71-26.5 126-86.9 179.2-145.4 73.9-81.1 143.8-157.6 249.1-140.8 148.9 23.9 270.1 128.7 387.2 230.1 91.2 78.9 185.5 160.5 293.6 205.6 99 41.3 175.2 42.8 263.4 44.5 35 .7 71.1 1.4 111.2 4.6 32.3 2.6 62.3 6.3 90.8 10.9v-9.9c-28.4-4.5-58.1-8.1-90-10.7-40.4-3.3-76.7-4-111.8-4.7-87.2-1.7-162.5-3.1-259.8-43.7-106.6-44.5-200.4-125.6-291-203.9-118.2-102.3-240.4-208-392.1-232.3-110.7-17.8-182.2 60.8-257.9 143.9-52.4 57.6-106.7 117.1-175.4 142.8-83.3 31.2-157.5 9.3-229.3-11.9-81.6-24.1-166.1-49.1-259.3 9.4-85.5 53.6-155 128.3-222.3 200.6-88.3 94.9-179.6 193.1-308.4 245.1-120.6 48.7-269.5 46.6-413.6 44.6-103.2-1.5-210-3-303.1 14.8-160.7 30.7-320 85.8-474 139.1-213.2 73.8-433.6 150-663 163.7-281.9 16.7-575.4-65.2-859.3-144.6-46-12.9-92.5-25.8-139.1-38.4v9.9z"/><path class="st1" d="M1024.5 3349.3c232.4-11.6 454.6-86.8 669.6-159.4 149.1-50.4 303.3-102.6 458.6-132.6 83.7-16.2 182.2-16.4 286.4-16.5 155.4-.3 316.1-.6 436.2-56.2 121.9-56.5 206.8-152.2 288.9-244.9 64.3-72.5 130.7-147.4 214.1-202.1 108.2-71 168.3-48.5 237.7-22.6 62.1 23.2 132.6 49.5 247.8 5.1 69-26.6 120.7-86.1 170.6-143.7 69.1-79.7 134.3-155.1 238.7-139.5 153.2 22.5 280.1 127.9 402.8 229.8 91.1 75.7 185.4 153.9 290.4 198.7 99.9 42.6 178.4 46.4 269.3 50.8 35.4 1.7 72 3.5 112.1 7.7 36.1 3.8 69.8 8.8 101.8 15v-10c-31.7-6.1-65-11-100.7-14.8-40.5-4.3-77.2-6-112.7-7.8-89.9-4.4-167.6-8.1-265.9-50-103.7-44.2-197.4-122-287.9-197.2-123.8-102.8-251.7-209-407.7-232-109.6-16-176.7 61.1-247.6 142.9-49.1 56.7-100 115.3-166.7 141-111.7 43-177.4 18.5-240.8-5.2-69-25.8-134.2-50.1-246.5 23.6-84.4 55.4-151.3 130.8-216 203.8-81.5 91.9-165.7 186.9-285.7 242.5-118.1 54.7-277.7 55-432.1 55.3-104.7.2-203.6.4-288.2 16.7-156 30.1-310.5 82.4-459.9 132.9-214.3 72.5-435.9 147.4-666.9 158.9-291.1 14.6-593.5-72.5-886-156.7-45.7-13.1-91.7-26.4-138-39.3v10.2c45.3 12.7 90.5 25.7 135.3 38.6 271.4 78.1 551.3 158.6 823.6 158.6 21.7 0 43.6-.5 65.4-1.6z"/><path class="st1" d="M5449.5 2679.6c-32.8-5.8-65.4-11.1-97.7-16.4-131.1-21.4-266.6-43.4-401.4-98.9-105.7-43.5-201.4-120.1-293.9-194.1-126.6-101.3-257.5-206-415.4-226.4-109.4-14.3-171.9 61.7-238 142.1-46.1 56-93.8 114-159.4 140.6-108 43.7-174.3 23.4-238.4 3.8-70.7-21.7-137.6-42.2-247.6 34.4-80.5 56-142.7 130.9-202.8 203.4-76.2 91.8-155 186.7-271.5 243.3-120.2 58.4-283 61.1-440.4 63.7-102.1 1.7-198.5 3.3-281.5 19.4-156.2 30.3-308.8 79.4-456.4 126.8-210.7 67.7-428.6 137.7-658.5 153.4-301.2 20.6-613.5-75.1-915.5-167.7-43.3-13.5-87.1-26.9-131.1-40.1v10.3c43 12.9 85.9 26 128.3 39 274.6 84.2 557.6 171 833.9 171 28.4 0 56.8-1 85.1-2.9 231.1-15.8 449.5-86 660.8-153.9 147.3-47.3 299.7-96.2 455.3-126.5 82.1-16 178.1-17.5 279.7-19.2 158.5-2.6 322.4-5.3 444.6-64.7 118.4-57.6 197.9-153.3 274.8-245.9 59.7-71.9 121.5-146.3 200.9-201.6 106.1-73.9 167.7-54.9 239.1-33.1 62.7 19.3 133.7 41 245-4 68-27.5 116.4-86.4 163.3-143.4 64.3-78.2 125-152 229.2-138.6 155.1 20.1 284.9 123.9 410.5 224.4 93 74.4 189.3 151.4 296.3 195.5 135.8 55.9 271.9 78.1 403.5 99.5 32.8 5.3 65.9 10.8 99.2 16.7v-9.9z"/><path class="st1" d="M0 2998.7c42.4 13.1 84.6 26.5 126.5 39.8 285.6 90.6 580.2 184.1 868.2 184.1 24.4 0 48.7-.7 72.9-2.1 232.4-13.4 451.5-82 663.4-148.3 142-44.4 288.8-90.4 439-119.7 80.4-15.7 173.8-18.4 272.6-21.2 161-4.6 327.5-9.4 451.4-72.3 115.3-58.6 189.6-154.3 261.4-246.8 55.5-71.5 112.9-145.5 188.8-201.4 104.1-76.6 167.4-61 240.5-43 63.1 15.5 134.6 33.2 242-12.4 102.3-43.4 138.1-109.8 169.7-168.4 38.5-71.5 69-127.8 208.2-113.9 158.9 16.1 295.5 120.7 427.5 221.8 93.1 71.4 189.5 145.1 293.6 188.2 138.9 57.4 278.6 82.6 413.6 107 36.5 6.6 73.3 13.3 110.3 20.6v-10c-36.4-7.2-72.6-13.7-108.6-20.2-134.5-24.3-273.6-49.4-411.6-106.4-102.9-42.6-198.8-115.9-291.4-186.9-133.1-102-270.8-207.4-432.5-223.8-145.8-14.9-179.1 47.2-217.8 119-30.8 57.2-65.7 122-164.9 164-104.4 44.3-171.2 27.9-235.8 11.9-72.5-17.9-140.9-34.7-248.7 44.6-77 56.7-134.8 131.2-190.7 203.3-71.1 91.7-144.7 186.5-258.1 244-121.9 61.9-287.3 66.7-447.2 71.3-99.2 2.9-193 5.6-274.2 21.4-150.7 29.4-297.8 75.4-440 119.9-211.3 66.1-429.8 134.5-661 147.9-309.2 17.8-628.6-83.6-937.6-181.6-42.9-13.6-86.1-27.3-129.5-40.7v10.3z"/><path class="st1" d="M0 2920.6c41.6 13.4 83.1 27 124.3 40.6 296.5 97.5 602.5 198.1 901.9 198.1 19.8 0 39.5-.4 59.2-1.3 233.5-10.8 452.8-77.6 664.9-142.2 136.4-41.6 277.5-84.6 422.1-112.8 78.6-15.3 169.2-18.9 265.1-22.6 162.9-6.4 331.3-12.9 456.5-79.1 112.5-59.4 181.8-155.1 248.8-247.6 51.6-71.3 105-144.9 177.7-201.3 102.3-79.3 167.2-66.8 242.5-52.2 63.4 12.2 135.3 26.1 238.5-20.2 98.8-44.3 131.4-109.6 160.2-167.1 35.6-71.1 63.5-127.4 204.9-116.8 163.3 12 306.8 117 445.6 218.6 93.1 68.1 189.3 138.5 290.8 180.3 142.1 58.6 285.2 86.4 423.6 113.4 40.7 7.9 81.8 15.9 123.1 24.8v-10c-40.7-8.7-81.1-16.6-121.2-24.4-137.9-26.8-280.5-54.6-421.7-112.8-100.4-41.4-196.1-111.4-288.7-179.2-139.9-102.3-284.6-208.2-450.7-220.4-147.9-11-178.7 50.8-214.4 122.2-28.1 56.1-59.9 119.7-155.5 162.6-100.4 45.1-167.6 32.1-232.6 19.5-74.4-14.4-144.6-27.9-250.3 54.1-73.9 57.3-127.6 131.5-179.7 203.4-66.3 91.6-134.9 186.3-245.4 244.7-123.2 65.1-290.5 71.7-452.3 78-96.3 3.8-187.3 7.3-266.6 22.8-145.1 28.3-286.4 71.4-423.1 113-211.5 64.5-430.2 131.1-662.5 141.8-316.4 14.3-642.3-92.6-957.6-196.3-42.2-14.3-84.7-28.2-127.4-41.9v10.3z"/><path class="st1" d="M0 2841.6c43.3 14.4 86.5 29 129.3 43.5 307.2 104.1 624.4 211.6 936.6 211.6 11.7 0 23.3-.2 35-.5 245.5-6.4 477.5-75.3 701.8-141.9 119.3-35.4 242.7-72.1 368.3-99.6 84.5-18.5 178.1-23 277.3-27.8 155-7.4 315.2-15.1 439.8-80.6 111.5-58.7 175.9-155 238.1-248.1 47.5-71.1 96.6-144.6 166.6-201.7 100.2-81.8 166.9-72.1 244.1-61 63.7 9.3 136 19.7 235.3-27.2 95.5-45.1 125.4-109.4 151.7-166.1 33-71.2 58.8-127.1 202.8-121 167.8 7.5 318.6 112.7 464.4 214.4 92.9 64.8 188.9 131.9 287.9 172.3 145.5 59.4 291.8 89.4 433.3 118.5 45.5 9.4 91.3 18.8 137.5 29.3v-10.1c-45.5-10.2-90.8-19.5-135.5-28.7-141.1-29-286.9-59-431.5-118-98-40-193.5-106.7-286-171.2-147-102.6-298.9-208.6-469.6-216.2-150.1-6.7-178.9 55.1-212.1 126.7-25.6 55.2-54.7 117.8-147 161.3-96.7 45.6-164.3 35.8-229.7 26.3-76.1-11-148.1-21.5-251.7 63.1-71.1 58-120.6 132.2-168.5 203.8-64.4 96.4-125.2 187.4-234.6 244.9-122.6 64.5-281.7 72.1-435.7 79.5-99.6 4.8-193.6 9.3-278.9 28-125.9 27.6-249.4 64.3-368.9 99.8-234 69.5-455.1 135.2-699.3 141.6-321.8 8.6-650.3-103-968.1-210.7-43.8-14.9-88-29.8-132.4-44.6v10.4z"/><path class="st1" d="M0 2764.1c42.8 14.9 85.4 29.9 127.6 44.7 316.3 111.6 643.1 226.8 964.1 226.8 7.5 0 15-.1 22.4-.2 236.2-4 443.4-65.3 662.8-130.2 121.7-36 247.6-73.2 378.7-99.6 81-16.3 170.7-20.9 265.7-25.7 160.9-8.1 327.4-16.6 455.3-85.9 110.5-59.9 167.3-151.4 227.4-248.4 42.8-69 87.1-140.4 152.6-199.1 81.3-72.8 168.9-72 261.4-71 72.5.8 147.4 1.5 220.9-34.8 91.7-45.3 118.9-106.8 143-161.2 30.4-68.7 54.5-123.2 196.2-123.2 3.1 0 6.2 0 9.4.1 176.2 2.9 333.2 106.2 485 206.1 90.8 59.8 184.7 121.6 280.9 160.2 149 59.8 299 92.2 444.1 123.6 50.2 10.9 101 21.9 152 34v-10.1c-50.4-11.9-100.4-22.8-150-33.5-144.7-31.3-294.3-63.6-442.5-123.1-95.2-38.2-188.7-99.8-279.1-159.3-153-100.7-311.2-204.8-490.2-207.7-3.2-.1-6.2-.1-9.3-.1-148.3 0-174.8 59.9-205.4 129.1-23.4 52.8-49.8 112.7-138.3 156.4-71.5 35.3-145.3 34.5-216.5 33.8-90.5-1-183.9-1.9-268.1 73.5-66.6 59.7-111.3 131.7-154.4 201.3-59.4 95.8-115.5 186.2-223.7 244.9-126 68.3-291.3 76.7-451.1 84.8-95.4 4.8-185.4 9.4-267.2 25.9-131.5 26.5-257.6 63.8-379.6 99.8-218.7 64.7-425.2 125.8-660.1 129.8-326.4 5.5-660.3-112.2-983.1-226.1-43.3-15.3-87-30.7-130.9-45.8v10.2z"/><path class="st1" d="M1125.5 2975.6c227.7-.8 420.7-59.1 625.1-120.7 120.5-36.4 245.1-74 377.8-98.8 80.3-15 168.6-19 262-23.2 166-7.5 337.6-15.2 469.8-88.5 107.8-59.7 158.3-151.8 207.2-240.8 38.4-70 78.1-142.3 145.6-201.3 83.2-72.7 172.7-76.8 267.4-81.1 73.2-3.3 148.9-6.7 222.2-44.2 87.6-44.7 113.5-103.5 136.4-155.3 30.4-68.8 53.8-123.3 210.4-121.5 182.4 2 345 99.4 502.1 193.5 89 53.3 181.1 108.5 275.3 145.3 151 58.9 305.5 94 455 128 55.4 12.6 111.4 25.3 167.7 39.4v-10.1c-55.6-13.9-110.8-26.5-165.5-38.9-149.1-33.9-303.3-68.9-453.6-127.6-93.5-36.5-185.2-91.4-273.9-144.5-158.3-94.8-322-192.9-507.1-194.9h-7.1c-156.1 0-182.2 59.1-212.3 127.4-22.2 50.3-47.4 107.4-131.9 150.5-71.5 36.5-146.1 39.9-218.2 43.1-92.2 4.2-187.6 8.5-273.4 83.5-68.8 60.1-109 133.3-147.8 204-50.4 91.8-98 178.6-203.3 237-130.2 72.1-300.7 79.7-465.5 87.2-93.8 4.2-182.5 8.2-263.4 23.4-133.2 25-258.1 62.7-378.8 99.1-203.7 61.4-396 119.5-622.3 120.3h-4.9c-330.3 0-666.3-123.2-991.2-242.3-42.7-15.8-85.9-31.6-129.3-47.2v10.4c42.2 15.2 84.2 30.5 126 45.9 325.8 119.4 662.5 242.9 994.6 242.9h4.9z"/><path class="st1" d="M1134.9 2916.4c4.1 0 8.2.1 12.3.1 209.5 0 387.6-54.5 575.9-112.2 119.2-36.5 242.5-74.2 375-97.1 79-13.6 165.9-17.2 257.9-21 171.3-7.1 348.5-14.5 483.1-89.5 103.4-57.7 146-144.2 191.2-235.7 34.6-70.2 70.4-142.7 136.3-201.3 82-72.8 175.3-81.9 274.2-91.5 74.3-7.2 151.1-14.7 222.4-51.8 83.7-43.4 108.4-99.5 130.2-148.9 29.9-67.8 53.6-121.5 215.1-121.5h1.4c184.3.4 359.9 94.1 529.7 184.8 85.1 45.4 173.1 92.4 259.6 125.8 159 61.4 321 99.4 477.6 136.3 57.1 13.4 114.7 27 172.6 41.8v-10.1c-57.2-14.6-114.1-28-170.4-41.2-156.3-36.7-317.9-74.7-476.3-135.8-85.9-33.1-173.7-80-258.5-125.3-170.9-91.2-347.6-185.5-534.3-185.9h-1.4c-167.9 0-194 59-224.1 127.3-21.1 47.9-45.1 102.3-125.8 144.2-69.7 36.2-145.5 43.6-218.9 50.7-96 9.4-195.4 19-279.8 93.9-67.4 59.9-103.6 133.3-138.6 204.3-44.4 90.1-86.4 175.3-187.2 231.5-132.6 73.9-308.5 81.2-478.7 88.3-92.4 3.8-179.6 7.4-259.1 21.2-133.1 22.9-256.7 60.8-376.2 97.4-191.2 58.5-371.9 113.6-585.2 111.7-337.4-3.4-678.4-133.4-1008.1-259.1-42-16-84.3-32-126.9-48.1v10.5c41.3 15.5 82.5 31.1 123.4 46.8 330.7 125.7 672.5 256 1011.6 259.4z"/><path class="st1" d="M0 2534c38.3 15 76.3 30.1 114.2 45.1 329.3 130.9 669.9 266.2 1009 273.9 8.8.2 17.5.3 26.2.3 195.9 0 365.7-50 544.8-102.8 118-34.8 240.1-70.7 370.7-91.2 76.7-12 161.6-14.7 251.5-17.5 175.7-5.5 357.4-11.1 493.4-89.3 99.9-57.4 138.1-142.4 178.6-232.3 31.6-70.2 64.2-142.7 129.1-201.1 81.6-73.4 175.5-85.4 274.9-98.1 75.8-9.7 154.2-19.7 226.5-59.4 82-45 105.8-98 126.7-144.7 29.3-65.4 52.5-117.1 223.9-123.1 6.2-.2 12.4-.3 18.6-.3 181.2 0 361.2 90.9 535.4 178.9 88.5 44.7 172 86.9 254.1 116.7 158.9 57.8 322.3 95 480.2 131.1 63.3 14.4 127.4 29 191.6 45.1v-10.1c-63.6-15.8-126.8-30.3-189.5-44.5-157.6-36-320.6-73.2-479-130.7-81.6-29.7-164.9-71.7-253-116.3-181.3-91.6-368.5-186.5-558.8-179.6-177.5 6.2-203 63-232.5 128.9-20.3 45.3-43.3 96.7-122.5 140.1-70.7 38.8-148.1 48.7-223 58.2-96.6 12.3-196.4 25.1-280.3 100.5-66.4 59.8-99.5 133.3-131.5 204.3-39.8 88.5-77.4 172.1-174.6 227.9-133.9 76.9-314.3 82.5-488.8 88-90.2 2.8-175.4 5.5-252.7 17.6-131.3 20.6-253.7 56.6-372 91.5-186.4 54.9-362.5 106.7-568 102.1-337.3-7.7-677-142.7-1005.6-273.2-39-15.5-78.3-31.1-117.8-46.6v10.6z"/><path class="st1" d="M1146.1 2789.4c185.1 0 346.9-45.3 517.5-93.1 116.4-32.6 236.7-66.3 365.6-84.5 74.4-10.5 157.3-12.1 245-13.8 179.2-3.5 364.5-7.2 501.1-87.4 97.2-57.1 133.2-144.8 168-229.5 28.8-70.2 58.6-142.7 122.8-201 81.4-73.9 176-88.4 276.2-103.7 77-11.8 156.6-24 229.3-65.7 81-46.4 104.7-98.1 125.7-143.6 29.6-64.5 53.1-115.4 230.9-123.5 192.4-8.6 385 83.1 571.3 171.8 89.8 42.8 174.6 83.2 258 112 162.5 56.2 329.4 91.9 490.7 126.5 66.5 14.2 133.8 28.7 201.4 44.6v-10.1c-66.8-15.7-133.4-29.9-199.3-44-161-34.5-327.5-70.1-489.5-126.1-82.8-28.7-167.4-69-257-111.6-187.4-89.3-381-181.7-576-172.7-183.8 8.3-209.5 64.3-239.3 129.1-20.3 44.2-43.4 94.4-121.6 139.2-71.1 40.8-149.8 52.8-225.9 64.5-97.2 14.9-197.7 30.3-281.3 106.2-65.8 59.8-96.1 133.3-125.3 204.5-35.8 87-69.6 169.3-163.9 224.8-134.4 79-318.4 82.6-496.3 86.1-88 1.7-171.2 3.4-246.2 13.9-129.6 18.3-250.2 52-366.9 84.7-182.7 51.2-355.5 99.5-556.9 92-336.2-12.7-672.7-152.2-998.1-287.1-35.1-14.5-70.4-29.1-105.9-43.7v10.6c34.2 14 68.2 28.1 102.1 42.2 326.2 135.3 663.6 275.1 1001.6 287.8 14.1.4 28.2.6 42.2.6z"/><path class="st1" d="M5449.5 2021.9c-70.5-15.7-140.7-29.7-210.1-43.5-164.3-32.8-334.2-66.7-499.8-120.9-84.2-27.6-170.2-66.2-261.2-107-193.3-86.8-393.4-176.6-592.8-165.3-190.1 10.7-215.2 63.4-246.9 130.2-20.6 43.3-43.9 92.4-121.4 138.5-71.7 42.6-151.6 56.7-228.9 70.2-97.7 17.2-198.8 34.9-282.2 111-65.5 59.7-93.1 133.4-119.8 204.6-32.1 85.7-62.5 166.6-154.4 221.8-135.1 81.1-323 82.3-504.8 83.6-85 .6-165.4 1.1-237.3 9.9-128.5 15.6-249 47.3-365.4 77.9-178.7 46.9-347.5 91.2-541.3 82-333.2-16-666.6-160.7-989.1-300.7-31.2-13.5-62.6-27.1-94.2-40.7v10.7c30.2 13 60.3 26 90.3 39 323.3 140.4 657.5 285.5 992.5 301.5 17.7.9 35.2 1.3 52.6 1.3 173.5 0 328.5-40.7 491.7-83.5 116.2-30.5 236.3-62.1 364.1-77.6 71.4-8.7 151.5-9.2 236.2-9.8 183-1.2 372.3-2.5 509.7-85 94.8-56.9 127.2-143.2 158.5-226.7 26.3-70.1 53.5-142.6 117.2-200.8 81.3-74.2 176.5-90.9 277.3-108.6 78.2-13.7 159-27.9 232.1-71.4 80.1-47.7 104.1-98.2 125.3-142.8 30.3-63.8 54.3-114.3 238.6-124.6 196.6-11 395.9 78.1 588.2 164.4 91.3 41 177.5 79.6 262.2 107.4 166.1 54.4 336.3 88.3 500.9 121.2 70 14 140.9 28.1 212 44v-10.3z"/><path class="st1" d="M1129.2 2663.3c162.8 0 309.5-36.4 463.7-74.6 114.2-28.3 232.4-57.6 358.2-70.8 69.3-7.3 147.3-6.7 230-6.1 185.3 1.5 376.9 2.8 514.4-81.2 92.7-56.6 121.9-141.8 150.1-224.1 24-70.1 48.9-142.6 112.3-200.7 81.3-74.4 177-93 278.3-112.7 79.3-15.4 161.3-31.4 235-76.6 79.4-48.7 103.9-98.3 125.5-142.1 31.4-63.5 56.2-113.7 247.1-126.6 202.9-13.8 416.3 75.8 622.6 162.3 87.1 36.5 169.3 71.1 248.6 96.9 176.8 57.6 357.2 90.3 531.6 121.9 67 12.1 134.7 24.6 202.7 38.3V1957c-67.5-13.6-134.6-25.8-201-37.9-174.1-31.5-354.2-64.2-530.3-121.6-78.9-25.7-161-60.2-247.9-96.6-207.3-87-421.8-177-627-163.1-196.6 13.3-222.5 65.7-255.2 132.1-21 42.6-44.9 90.8-121.9 138.1-72.3 44.3-153.3 60.1-231.8 75.4-98.2 19.1-199.7 38.8-283.1 115.1-65.3 59.8-90.6 133.4-115 204.7-28.9 84.4-56.3 164.1-146 218.9-135.1 82.5-325.3 81.1-509.2 79.7-82.9-.6-161.3-1.2-231.1 6.1-126.5 13.3-245 42.7-359.6 71.1-174.8 43.3-339.8 84.3-529.4 72.1-331.3-21.2-660.7-170.6-979.1-315-27.2-12.3-54.5-24.7-81.9-37v10.7c26.1 11.8 52 23.5 77.9 35.2 319.3 144.8 649.4 294.5 982.5 315.9 23.5 1.7 46.4 2.4 69 2.4z"/><path class="st1" d="M5449.5 1890.8c-71.5-13.5-142.7-25.3-213-37-177.2-29.4-360.5-59.9-540.3-114.9-80.5-24.7-164.1-57.6-252.6-92.6-213-84-433.2-171-642.8-154.2-203.1 16.2-230 68.4-264.2 134.6-21.7 42-46.2 89.6-122.9 137.8-72.9 45.9-155.3 63.2-235.1 79.9-98.8 20.7-201.1 42.2-283.5 118.5-82.6 76.6-93.9 141.2-104.8 203.7-12.4 71.2-24.1 138.5-144.8 217.2-135.8 88.5-326.7 82.4-511.3 76.4-81.1-2.6-157.8-5.1-225.9.9-124.5 11-240.9 38.1-353.4 64.4-170.8 39.8-332.1 77.5-517.2 62.5-329.1-26.6-654-180.6-968.1-329.5-23.1-11-46.2-21.9-69.5-32.9v10.8c21.9 10.3 43.6 20.6 65.3 30.9 314.9 149.3 640.6 303.7 971.5 330.4 28.8 2.3 57 3.4 84.8 3.4 152.2 0 290.5-32.3 435.5-66.1 112.2-26.2 228.3-53.2 352.1-64.1 67.5-6 143.9-3.5 224.7-.9 177.5 5.7 378.7 12.2 517-78 124.3-81.1 136.4-150.3 149.1-223.7 10.6-60.9 21.6-123.9 101.8-198.2 80.4-74.5 176.8-94.8 278.8-116.1 80.6-16.9 163.9-34.4 238.3-81.2 78.9-49.7 104.1-98.5 126.4-141.6 32.8-63.4 58.6-113.6 256.3-129.3 207.6-16.6 426.6 70 638.5 153.6 88.7 35 172.4 68 253.4 92.8 180.4 55.2 364 85.7 541.5 115.2 70.9 11.8 142.6 23.7 214.6 37.3v-10z"/><path class="st1" d="M5449.5 1821.4c-85.1-15.3-169.7-28.2-253.3-41-171-26.2-347.7-53.2-522.3-99.7-92.5-24.6-185.9-56.9-284.8-91-209.4-72.3-425.6-147.1-630.4-142.5-133.9 3-199.3 76.5-268.6 154.2-38 42.7-77.4 86.8-130 121.3-72.9 47.7-156.9 66.3-238.1 84.3-99.3 22-202 44.7-284.1 120.7-83.2 77-92.8 141.8-102.2 204.5-10.5 70.2-20.4 136.5-137.8 213.8-135.2 89-335.6 79.3-512.4 70.8-79.3-3.8-154.3-7.4-220.6-2.8-122.4 8.7-236.6 33.6-347 57.8-166.6 36.4-324 70.8-505 53-326.5-32.1-646.5-190.8-956-344.1-18.9-9.4-37.9-18.8-57-28.2v10.9c17.6 8.7 35.2 17.4 52.7 26.1 310.3 153.8 631.1 312.8 959.4 345.1 34.3 3.4 67.7 4.9 100.5 4.9 141.7 0 271.6-28.4 407.5-58.1 110.1-24.1 223.9-49 345.6-57.6 65.7-4.7 140.4-1.1 219.5 2.8 178.3 8.5 380.4 18.3 518.3-72.4 121.1-79.7 131.3-148.1 142.1-220.5 9.1-61 18.5-124.1 99.1-198.7 80.1-74.2 177-95.7 279.6-118.4 82.1-18.2 167-37 241.4-85.6 53.7-35.1 93.5-79.8 131.9-122.9 67.8-76.1 131.8-148 261.4-151 203-4.7 418.4 69.9 627 142 99.1 34.2 192.6 66.6 285.5 91.3 175.1 46.6 352.1 73.7 523.4 99.9 84.1 12.9 169.2 25.9 254.8 41.4v-10.3z"/><path class="st1" d="M1102.1 2478c131.5 0 252.9-24.8 379.8-50.7 107.9-22 219.5-44.8 339-51.2 64.1-3.4 137.2 1.4 214.6 6.4 178.6 11.7 380.9 24.8 518.1-66 118.2-78.3 126.9-145.8 136.1-217.4 7.9-61.1 16-124.3 97.3-199.2 80.1-73.8 181.9-97.3 280.2-120.1 83.4-19.3 169.6-39.2 244.4-89.2 52.9-35.4 93.4-79.2 132.6-121.5 72-77.8 140.1-151.3 273-156.2 206.7-7.6 427.7 63.9 641.3 133.1 96.4 31.2 196.1 63.5 290.7 86.9 178.2 44 358.1 68.8 532 92.8 88.5 12.2 178.1 24.5 268.3 39.5v-9.9c-89.7-14.8-178.9-27.1-266.9-39.2-173.7-23.9-353.3-48.7-531-92.6-94.3-23.3-189.4-54.1-290.1-86.7-214.4-69.4-436.4-141.1-644.7-133.6-137 5-206.4 80-279.9 159.3-38.8 41.9-78.9 85.3-130.9 120-73.3 49-158.6 68.8-241.1 87.8-99.6 23-202.6 46.8-284.6 122.4-83.9 77.2-92.3 142.2-100.4 205.2-8.9 69.3-17.4 134.7-131.8 210.5-134.4 89-335.1 75.9-512 64.4-77.7-5.1-151.1-9.9-215.7-6.4-120.2 6.4-232.2 29.3-340.4 51.4-162.4 33.1-315.9 64.5-492.5 43.9C663.9 2423.9 349 2260.8 44.6 2103L0 2079.9v11l40 20.7c305.3 158.2 621 321.8 946.3 359.7 38.4 4.5 77.1 6.7 115.8 6.7z"/><path class="st1" d="M4629.2 1566.6c-96.2-22-193.2-51.4-295.9-82.6-218.9-66.4-445.1-135.1-657.7-124.2-140.2 7.1-213.9 83.8-291.8 164.9-39.6 41.3-80.6 84-132.1 119-73.9 50.3-160.4 70.8-244.1 90.8-99.8 23.8-203.1 48.3-285.2 123.4-84.7 77.4-92.1 142.7-99.3 205.8-7.8 68.5-15.1 133.2-126.8 207.4-133.6 88.6-333.7 71.9-510.3 57.2-76.2-6.4-148.1-12.4-211.3-10.1-118.3 4.2-227.9 24.9-333.8 44.8-157.6 29.7-306.4 57.7-480 35.5-322-41.3-633.8-211-935.3-375.1l-25.6-14v11.2l21 11.4c302.3 164.6 614.9 334.7 938.7 376.2 42.5 5.4 85.4 8.1 128.2 8.1 122.9 0 236.4-21.4 354.8-43.7 105.6-19.9 214.7-40.5 332.3-44.7 62.6-2.2 134.2 3.7 210.1 10.1 178.2 14.8 380.1 31.7 516.5-58.8 115.6-76.6 123.1-143.6 131.2-214.4 6.9-61.3 14.1-124.7 96.1-199.7 80.2-73.3 182.2-97.6 280.8-121.1 84.6-20.1 172-40.9 247.3-92.2 52.3-35.6 93.7-78.7 133.7-120.3 76.6-79.7 148.9-155 285.2-161.9 210.6-10.8 436.2 57.7 654.3 123.8 98.4 29.8 200.1 60.7 296.6 82.7 181.1 41.4 363.8 63.8 540.4 85.4 93 11.4 187.3 23 282.2 37.4v-9.9c-94.5-14.4-188.4-25.9-281-37.3-176.2-21.4-358.6-43.8-539.2-85.1z"/><path class="st1" d="M0 1949.4l8.5 4.8C305.2 2123 612 2297.6 932.3 2344.8c47.3 6.9 95.1 10.4 142.9 10.3 113 0 218.3-18.4 327.8-37.5 103.3-18 210.1-36.7 325.5-38.8 61.3-1.1 131.6 6.1 206.1 13.7 177.1 18.1 377.9 38.6 513.5-51 113.3-74.9 120.1-141.3 127.2-211.5 6.3-61.6 12.8-125.2 95.8-200.2 80.4-72.6 182.6-97.4 281.3-121.3 85.7-20.8 174.3-42.2 250.3-94.5 52-35.8 94.3-78.3 135.2-119.4 81.3-81.7 158.1-158.9 297.9-168 214.1-14 443.8 51.3 666 114.4 100.5 28.6 204.4 58.1 303.1 78.8 184 38.7 369.2 58.6 548.3 77.8 97.7 10.5 196.7 21.2 296.3 35v-9.9c-99.3-13.7-197.9-24.4-295.3-34.8-178.9-19.2-363.8-39.1-547.3-77.7-98.3-20.7-202.1-50.1-302.4-78.7-222.9-63.4-453.4-128.8-669.3-114.7-143.5 9.4-221.6 87.8-304.2 170.9-40.6 40.8-82.5 82.9-133.8 118.2-74.5 51.3-162.2 72.5-247.1 93.1-100 24.2-203.3 49.3-285.6 123.6-85.8 77.4-92.5 143-99 206.4-6.9 67.8-13.5 132-122.9 204.3-132.6 87.7-331.6 67.4-507.1 49.4-74.8-7.7-145.4-15.1-207.3-13.8-116.2 2.1-223.3 20.8-327 38.9-153.3 26.8-298.2 52.1-467.6 27.1-318.5-46.9-624.5-221.1-920.4-389.5L0 1938.1v11.3z"/><path class="st1" d="M0 1878.8c289.7 172.3 589.3 349.8 904.3 402.5 51.8 8.6 104.2 12.9 156.7 12.8 103.6 0 200.8-15.7 301.8-32 100.9-16.3 205.4-33.1 318.6-33.1 66.9 0 138.1 8.6 213.4 17.7 174.4 21.1 354.8 42.9 498.1-42.8 114.9-68.7 120.5-135.8 126.5-206.9 5.3-63.1 10.8-128.3 94.3-202.5 80.8-71.8 183-96.7 281.8-120.9 86.8-21.2 176.4-43.1 253.3-96.3 52.1-36 95.4-78.1 137.3-118.8 86.2-83.8 167.6-162.9 310.8-174.4 217.3-17.3 450.5 44.7 676.2 104.8 102.8 27.4 209.1 55.7 310 75.1 186.7 35.9 374.3 53.3 555.8 70.1 102.4 9.5 206.2 19.2 310.7 32.2v-9.9c-104.2-13-207.7-22.6-309.7-32.1-181.2-16.8-368.7-34.2-554.9-70-100.6-19.4-206.7-47.6-309.4-74.9-226.4-60.3-460.6-122.7-679.5-105.1-146.8 11.8-229.4 92.1-316.9 177.1-41.6 40.4-84.6 82.2-136 117.8-75.4 52.1-164.2 73.8-250.1 94.8-100 24.4-203.4 49.7-286 123.1-86.4 76.8-92.1 144-97.5 209-5.8 68.5-11.2 133.1-121.8 199.3-140.5 84-319.1 62.4-491.9 41.5-75.6-9.1-147.1-17.8-214.6-17.8-114 0-218.8 16.9-320.1 33.3-149.1 24.1-290 46.9-455.3 19.2-314.6-52.6-614.6-231-904.8-403.6l-1.1-.6v11.4z"/><path class="st1" d="M0 1809.4c280.8 174.8 571 353.1 875.8 408 52.9 9.5 105 13.3 156.3 13.3 97.4 0 192.1-13.5 284.8-26.8 102.8-14.7 209.1-29.9 316.9-26.2 61.4 2.2 127.4 11.6 197.3 21.6 177.2 25.4 360.4 51.6 505.7-34 112.8-66.5 118.4-133.2 124.4-203.8 5.3-63.6 10.9-129.3 95.7-203.2 81.2-70.7 183.4-95.6 282.1-119.7 87.7-21.4 178.5-43.5 256.3-97.3 62.3-43 110.9-86.2 153.8-124.2 90.4-80.2 161.8-143.5 310.7-175.4 208.9-44.8 455.8 24 694.5 90.4 107.6 30 209.3 58.2 307.2 76.6 195.8 36.6 392.6 51.6 582.9 66.1 100.5 7.7 202.5 15.5 305.1 26.6v-9.9c-102.4-11-204.1-18.8-304.4-26.5-190.1-14.5-386.6-29.5-581.9-66-97.5-18.2-198.9-46.5-306.4-76.4-239.9-66.8-488-135.8-699.2-90.6-151.4 32.4-227.3 99.7-315.1 177.6-44.8 39.7-91.1 80.8-152.8 123.5-76.3 52.8-166.2 74.7-253 95.9-99.9 24.4-203.2 49.6-286.3 121.8-87.9 76.5-93.5 144.2-99 209.7-5.7 68-11.1 132.3-119.6 196.2-142.3 83.8-323.8 57.9-499.3 32.8-70.2-10-136.4-19.5-198.4-21.7-108.6-3.9-215.4 11.5-318.6 26.2-140.7 20.1-286.1 40.9-438 13.5-304.9-54.9-596-234.5-877.6-409.9v11.8z"/><path class="st1" d="M1276.8 2146.3c100.4-13.2 204.3-26.7 309.6-21.2 60.7 3.2 126 14 195.1 25.3 89.1 14.7 179.8 29.6 266.4 29.6 82.8 0 161.9-13.7 232.2-54.3 111-64.1 116.9-130.5 123.2-200.8 5.7-64.1 11.6-130.4 98-203.9 81.8-69.5 183.8-94.1 282.4-117.8 88.7-21.4 180.3-43.5 259.3-97.7 62.1-42.7 109.9-83.8 156.1-123.6 92.8-79.8 172.9-148.7 324.7-182.7 210.9-47.3 461 18.1 702.7 81.3 110 28.8 213.9 55.9 314 72.9 198.5 33.8 397.8 46.2 590.6 58.2 104.9 6.5 211.3 13.2 318.5 23.4v-9.9c-107-10.1-213.2-16.7-317.9-23.2-192.5-12-391.5-24.4-589.5-58-99.6-16.9-203.3-44-313.1-72.7-242.9-63.5-494.1-129.1-707.3-81.4-154.1 34.5-235.2 104.2-329 184.9-46.1 39.6-93.7 80.6-155.3 122.9-77.4 53.3-168.2 75.1-256 96.3-99.8 24-202.9 48.9-286.4 119.9-89.5 76-95.8 147.4-101.4 210.5-6 67.7-11.7 131.6-118.3 193.2-140.8 81.3-319.4 51.9-492.1 23.5-69.4-11.4-135-22.2-196.2-25.5-106.2-5.6-210.5 8.1-311.3 21.3-137 18-278.7 36.5-426.6 6.8C552.7 2084 271.8 1904.9 0 1728.3v11.7c270.9 176 550.9 353.6 846.9 413 149.6 30 292 11.4 429.9-6.7z"/><path class="st1" d="M1236.7 2087.7c98.1-11.8 199.5-24 302.3-16.7 60.2 4.2 125 16.4 193.6 29.2 92.2 17.3 186 34.8 275.3 34.8 76.4 0 149.4-12.9 215-49.8 109.5-61.6 116-127.8 122.9-197.8 6.4-64.8 13-131.7 101.2-204.6 82.4-68.1 184.1-92.1 282.5-115.3 89.5-21.1 182.1-42.9 262.4-97.5 62.5-42.5 111.9-83.8 159.7-123.8 98.7-82.5 184-153.7 338.1-189.7 212.3-49.6 464.9 12.4 709.1 72.4 112.6 27.6 219 53.8 321.3 69.5 199.9 30.6 400.5 40.2 594.5 49.4 110.3 5.2 222.2 10.6 334.9 19.9v-9.8c-112.6-9.3-224.3-14.6-334.5-19.9-193.8-9.2-394.1-18.7-593.5-49.3-101.9-15.6-208-41.7-320.5-69.3-245.3-60.2-499-122.5-713.5-72.4-156.4 36.5-242.5 108.4-342.2 191.7-47.6 39.8-96.9 81-158.9 123.2-78.8 53.5-170.4 75.2-259.1 96.1-99.5 23.5-202.4 47.7-286.5 117.3-91.3 75.4-98.4 147.6-104.7 211.2-7 70.4-13 131.2-118 190.3-139.3 78.4-314.4 45.6-483.7 13.9-68.9-12.9-133.9-25.1-194.7-29.4-103.8-7.4-205.6 4.9-304.2 16.7-133.4 16.1-271.4 32.6-415.7.6-287.3-63.7-558-241.9-820-419.4v11.8c261 176.8 530.8 353.5 817.8 417.1 146.1 32.4 284.9 15.7 419.1-.4z"/><path class="st1" d="M1197.2 2027.8c95.7-10.6 194.6-21.6 295.1-12.8 60 5.3 124.4 18.9 192.7 33.2 94.5 19.9 190.9 40.2 282.2 40.2 70.2 0 137.4-12 198.5-45.3 108.1-58.9 115.6-125 123.6-194.9 7.4-65.5 15.1-133.2 105.3-205.3 83.2-66.6 180-88.7 282.5-112.1 90.2-20.6 183.4-41.9 265.4-96.5 55.9-37.2 106.2-80.5 154.9-122.4 107.4-92.4 208.7-179.7 359.9-198.5 225.1-27.9 478.9 23.1 724.3 72.3 111.3 22.4 216.4 43.5 318.7 57.6 202.4 27.9 405.3 34.8 601.5 41.6 114.5 3.9 230.6 7.9 347.6 16.1v-9.8c-117-8.2-232.9-12.2-347.3-16.1-196-6.7-398.6-13.6-600.5-41.5-102-14.1-207-35.1-318.1-57.5-246.2-49.4-500.8-100.6-727.4-72.4-154.1 19.1-256.6 107.3-365.1 200.8-48.4 41.7-98.6 84.9-153.9 121.7-80.6 53.5-172.9 74.7-262.2 95.1-99.1 22.6-201.5 46.1-286.4 114-93.3 74.7-101.6 147.6-108.9 211.9-8 70.2-14.9 130.9-118.5 187.4-137.6 75-308.6 39-474 4.1-68.6-14.4-133.3-28.1-193.9-33.4-101.4-8.9-200.9 2.1-297 12.8-129.9 14.4-264.3 29.3-405.2-4.9-278.3-67.6-539-244.6-791-422.4v12c251 177.1 510.7 352.4 788.6 419.9 142.6 34.6 277.8 19.6 408.6 5.1z"/><path class="st1" d="M1161.5 1967.9c90.8-9.3 184.8-19 284.9-10.7 65.2 5.4 134.1 21.5 207 38.5 92.7 21.7 187.2 43.8 276.9 43.8 62.7 0 123-10.8 178.6-40 107-56.2 115.8-122.1 125.1-192 8.8-66.3 18-134.8 110.2-206.1 83.9-64.8 180.3-85.8 282.3-108.1 91-19.9 185.1-40.4 268.7-95 58.1-37.9 110.8-82.2 161.8-125 111.9-93.9 217.5-182.7 371-203.6 225.6-30.8 480.3 17.3 726.7 63.8 114.2 21.6 222.1 41.9 326.9 54.8 204.8 25.2 409.8 29.6 608.1 33.8 118.4 2.5 238.6 5.1 359.8 12.2v-9.8c-121.1-7-241.2-9.6-359.6-12.1-198-4.2-402.8-8.6-607.1-33.7-104.5-12.9-212.3-33.2-326.3-54.7-247.1-46.6-502.7-94.9-729.8-63.9-156.3 21.4-263 111-376 205.9-50.8 42.6-103.2 86.7-160.8 124.3-82.1 53.6-175.3 73.9-265.4 93.6-98.6 21.5-200.5 43.8-286.2 109.9-95.4 73.7-105.3 147.5-113.9 212.6-9.4 70.2-17.4 130.8-120 184.6-132.2 69.4-293.1 31.8-448.7-4.6-73.3-17.1-142.5-33.3-208.5-38.8-101-8.3-195.4 1.3-286.7 10.7-132 13.5-256.7 26.3-398.6-11.2-269-71.1-519.6-246.5-761.8-424.3v12.1c241.2 176.9 490.7 350.7 759.4 421.6 143.6 38 269.1 25 402 11.4z"/><path class="st1" d="M5449.5 1157.5c-125.2-5.8-249.1-6.9-371.3-8-200-1.8-406.9-3.6-613.4-26.2-107-11.6-217.4-31.3-334.3-52.1-247.6-44.1-503.7-89.6-730.7-55.8-158.1 23.5-269.1 114.5-386.5 210.8-53.3 43.7-108.4 88.9-168.3 127.2-83.3 53.2-177.2 72.6-268 91.3-98.3 20.2-199.9 41.2-286.4 105.3-97.8 72.6-109.6 147.3-120 213.2-11.1 70.3-20.6 130.9-122.2 181.9-130.2 65.3-286.1 24.8-436.8-14.2-73.4-19.1-142.8-37-209.2-43.4-99.3-9.7-191.5-.6-280.6 8-128.4 12.5-249.6 24.2-388.8-15.5-259.8-74.1-500.5-247.6-733-425v12.3c231.4 176.3 471 348.1 730.3 422.1 141 40.2 263.1 28.3 392.4 15.8 88.6-8.6 180.3-17.5 278.7-8.1 65.6 6.3 134.6 24.2 207.7 43.2 93.7 24.3 189.3 49.1 280.1 49.1 57 0 112.1-9.8 163.6-35.6 106.1-53.2 116.5-119.2 127.5-189.1 10.6-67.2 21.5-136.7 116.1-206.8 84.8-62.9 180.8-82.6 282.5-103.6 91.7-18.9 186.5-38.4 271.3-92.6 60.4-38.6 115.7-84 169.2-127.9 116.4-95.4 226.3-185.6 381.8-208.7 225.5-33.5 480.7 11.9 727.6 55.8 117.1 20.8 227.6 40.5 335 52.2 207 22.6 414.1 24.4 614.4 26.2 122.2 1.1 246.2 2.2 371.4 8.1v-9.9z"/><path class="st1" d="M0 1400.3c221.7 175.3 451.6 344.7 701.5 421.3 138.7 42.4 257.5 31.2 383.3 19.3 86.5-8.2 175.9-16.6 272.8-6.1 66.3 7.2 135.7 27.1 209.1 48.1 94.1 26.9 190.3 54.4 281.8 54.4 51.6 0 101.7-8.8 149-31.3 105.5-50.2 117.8-116.3 130.8-186.3 12.7-68.2 25.8-138.7 122.9-207.6 85.7-60.8 181.5-79.1 283-98.5 92.4-17.6 187.8-35.9 273.7-89.4 63-39.2 121.3-86 177.6-131.2 120.7-96.8 234.7-188.3 391.9-213.5 224.7-36 480 6.9 726.9 48.4 119.9 20.2 233.1 39.2 342.7 49.7 209.2 20 418.2 19.4 620.3 18.8 125.7-.4 253.4-.7 382.2 3.9v-9.8c-128.9-4.6-256.5-4.2-382.2-3.9-201.9.6-410.6 1.2-619.3-18.8-109.3-10.5-222.3-29.5-342-49.6-247.6-41.7-503.7-84.7-730-48.4-159.7 25.6-274.7 117.9-396.5 215.5-56.2 45-114.2 91.6-176.7 130.5-84.3 52.6-178.9 70.6-270.4 88.1-98 18.7-199.4 38.1-286.8 100.1-100.4 71.3-114.5 147-126.9 213.8-13.1 70.4-24.4 131.2-125.3 179.2-128 60.9-278.4 17.9-423.9-23.7-73.8-21.1-143.6-41.1-210.8-48.4-97.8-10.7-187.8-2.2-274.8 6.1-124.8 11.8-242.7 23-379.5-19-250.5-76.6-481.5-247.8-704.4-424.3v12.6z"/><path class="st1" d="M1046.7 1773.1c83.9-8.8 170.6-17.9 267.4-6.7 67.7 7.8 138.7 30.5 213.9 54.5 94.8 30.3 191.9 61.2 283.9 61.2 45.4 0 89.6-7.5 131.7-26.4 105-46.9 120-113.9 135.9-184.8 15.6-69.7 31.8-141.8 131.7-208.8 85.9-57.6 185.2-74.7 281.2-91.3 93.1-16.1 189.3-32.7 276.2-85.4 73.5-44.6 136.3-91.4 197.1-136.6 118.9-88.5 231.2-172.1 395.8-215.3 217.3-57 473.3-10.1 720.8 35.3 122.6 22.5 238.4 43.7 349.1 52.9 211.3 17.6 422.2 14.6 626.1 11.7 128.9-1.8 259.7-3.6 391.8-.3v-9.8c-132.2-3.3-263.1-1.5-392 .3-203.7 2.9-414.3 5.9-625.1-11.6-110.3-9.2-225.8-30.3-348.2-52.8-248.6-45.6-505.8-92.7-725.1-35.1-166.5 43.6-279.5 127.8-399.1 216.9-60.6 45.1-123.3 91.8-196.4 136.1-85.4 51.8-180.7 68.2-272.8 84.1-97 16.8-197.3 34.1-285 92.8-103.2 69.2-120.6 146.5-135.9 214.8-16 71.4-29.8 133-130.3 178-124.2 55.5-268.8 9.3-408.6-35.3-75.7-24.1-147.1-46.9-215.8-54.9-97.8-11.3-185.1-2.2-269.5 6.7-120 12.6-233.3 24.4-369.5-20.1-241.5-79-462.8-247.9-676.1-423v12.7C212 1506.8 432.2 1673.8 673 1752.5c138.4 45.3 252.7 33.3 373.7 20.6z"/><path class="st1" d="M0 1263.7c202 172.2 412.2 338 645.2 418.8 132 45.7 244 28.2 352.3 11.3 85.3-13.3 173.4-27.1 270.4-9.6 66.6 12 134.9 38.2 207.3 65.9 98.7 37.8 199.8 76.6 296.3 76.6 41 0 81.1-7 119.9-24 85.1-37.3 116-113.9 148.7-195.1 30.5-75.7 62-154 141.1-203.3 85.7-53.4 182.1-67.1 275.3-80.4 92.6-13.2 188.2-26.8 276.2-78.5 74.5-43.8 139.4-89.6 202.2-133.9 129.4-91.2 251.5-177.4 427.6-222 216.4-54.9 465.6-12.8 706.6 27.9 121.7 20.6 236.7 40 348.3 48 213.4 15.2 426.7 10.1 633 5.2 131.2-3.1 264.4-6.3 399-4.2v-9.8c-134.7-2-268 1.1-399.2 4.2-206.1 4.9-419.2 10-632-5.2-111.2-7.9-225.9-27.3-347.4-47.8-242-40.9-492.2-83.2-710.6-27.8-177.8 45.1-300.7 131.8-430.9 223.5-62.6 44.1-127.4 89.8-201.5 133.4-86.3 50.8-181 64.2-272.6 77.3-94.2 13.4-191.6 27.2-279.1 81.8-81.8 51-113.9 130.8-145 207.9-31.9 79.2-62.1 154-143.5 189.7-126.5 55.4-270 .4-408.8-52.8-69.6-26.7-141.6-54.3-209.1-66.4-98.6-17.8-187.6-3.9-273.7 9.5-107.2 16.7-218 34.1-347.6-10.9-233.9-81-445.1-248.9-648.4-422.4v13.1z"/><path class="st1" d="M0 1189.8c191.6 171.2 391.1 338.6 618 421.6 129.8 47.4 234.7 24.9 336.2 3.1 83.6-18 170.1-36.6 269.8-15.2 68 14.6 140.6 46.8 210.8 78 100.3 44.5 203 90.2 301.2 90.2 35.8 0 71.1-6.1 105.4-20.5 86-36.1 121.4-113.9 159-196.3 35.4-77.7 72-158.1 154.8-206.9 85.9-50.6 179.5-60 270-69.1 91.8-9.3 186.8-18.8 275.6-70.6 69.6-40.6 132.9-82.9 194.1-123.7 145.5-97.1 282.9-188.9 472.5-236 212.5-52.8 457-14.9 693.5 21.7 120.2 18.6 233.8 36.2 344 42.9 215.2 13 431.3 6 640.3-.9 133-4.3 268.1-8.7 404.3-7.9v-9.8c-136.4-.7-271.5 3.6-404.7 7.9-208.8 6.8-424.6 13.9-639.4.9-109.8-6.6-223.1-24.2-343.1-42.8-237.5-36.8-483-74.8-697.4-21.6-191.2 47.5-329.3 139.7-475.6 237.3-61.1 40.8-124.4 83-193.6 123.4-86.9 50.7-180.8 60.2-271.6 69.3-91.6 9.2-186.3 18.8-274 70.4-85.4 50.3-122.7 132.1-158.8 211.3-36.7 80.6-71.4 156.7-153.8 191.3-124.5 52.3-264-9.7-398.8-69.6-70.6-31.4-143.7-63.8-212.7-78.6-101.8-21.8-189.3-3-274 15.2-100.1 21.5-203.6 43.7-330.7-2.7-227.8-83.3-428.4-252.9-621.3-425.5v13.2z"/><path class="st1" d="M909.5 1527.1c85.8-19.8 174.4-40.2 272.8-16.1 69.3 17 142.5 53.8 213.3 89.5 101.1 50.9 204.8 103.1 304.8 103.1 31.9 0 63.5-5.3 94.5-17.7 88.3-35.3 128-114 170-197.3 39.9-79.2 81.3-161.1 168.2-209 86.4-47.5 178.4-53.3 267.3-58.8 90.9-5.7 185-11.5 274.3-61.4 69.9-39.1 136.1-82.8 200.1-125.2 155.4-102.8 302.3-199.9 500.9-237.2 215.5-40.5 452.1-9.2 680.9 21 116 15.3 236.1 31.2 348.8 36.6 215.9 10.5 432.8 1 642.4-8.1 132.2-5.7 266.4-11.5 401.7-12.4v-9.8c-135.5.9-269.8 6.6-402.1 12.4-209.5 9.1-426 18.5-641.5 8.1-112.3-5.4-226.8-20.6-348-36.6-229.5-30.3-466.9-61.7-684-20.9-200.6 37.7-348.2 135.3-504.5 238.7-63.8 42.2-129.9 85.9-199.5 124.8-87.4 48.8-180.3 54.6-270.1 60.2-90 5.6-183.1 11.4-271.5 60-89.6 49.3-131.6 132.6-172.2 213.2-41.2 81.6-80 158.7-164.9 192.6-124 49.6-259.8-18.9-391.2-85.1-71.3-35.9-145-73-215.4-90.3-100.6-24.6-190.5-4-277.3 16.1-98.1 22.6-199.5 45.9-316.3 3-213-78.3-405.7-240.5-591-409.4v13.3c184 167.4 375.5 327.4 587.6 405.4 119.6 43.9 222.4 20.2 321.9-2.7z"/><path class="st1" d="M4421.3 793.7c-116.2-4.5-240.2-20.4-360.1-35.9-226.3-29.2-460.2-59.3-674.4-19.6-207.7 38.4-372.4 142.2-531.8 242.6-65.6 41.3-133.5 84.1-204 122.2-89.1 48.1-181.7 49.9-271.3 51.5-88.4 1.6-179.7 3.3-268.7 48.9-93.7 48-140.3 132.1-185.4 213.4-45.6 82.3-88.7 159.9-176.6 193.7-125.7 48.3-258.1-26.5-386.2-98.8-71.5-40.4-145.5-82.1-217.1-101.6-102.5-27.8-185.7-2.9-266.2 21.2-99.4 29.8-193.3 57.9-322.3-4.1-200.5-96.4-382.3-249.5-557.2-405.8v13.1c173.4 154.7 353.8 305.7 553 401.4 132.4 63.6 232.5 33.6 329.3 4.7 79.2-23.7 161.1-48.2 260.8-21.1 70.5 19.2 143.9 60.6 214.8 100.7 101 57 204.6 115.5 306.7 115.5 30 .1 59.9-5.3 87.9-16.1 91.2-35.1 135.1-114.2 181.6-198.1 44.4-80 90.3-162.8 181.3-209.4 86.9-44.5 177.1-46.2 264.4-47.8 90.7-1.7 184.5-3.4 275.7-52.7 70.8-38.3 138.8-81.1 204.6-122.5C3026 884.7 3182.6 786 3388.4 747.9c212.8-39.4 445.9-9.4 671.4 19.7 120.1 15.5 244.3 31.5 361 36 216.8 8.4 434.2-4.2 644.6-16.4 126.4-7.3 254.6-14.7 383.9-17.6v-9.8c-129.6 2.9-258 10.3-384.5 17.6-210 12.1-427.2 24.7-643.5 16.3z"/><path class="st1" d="M0 938.8c174.5 155.5 340.6 301.2 519.6 401.9 123.8 69.7 235.7 77.8 333.1 23.8 73.8-55.3 159.3-68.8 254.1-40.1 70.5 21.4 143.3 66.9 213.7 111 101.4 63.4 205.5 128.6 310.4 128.6 28.1.1 56-4.9 82.4-14.6 94.3-34.7 142.8-114.4 194-198.8 49.1-80.9 99.9-164.6 195.4-209.9 87.8-41.7 176.3-39 261.8-36.4 90.2 2.7 183.5 5.5 276.8-43 71.6-37.3 140.6-77.4 207.4-116.2 177.5-103.2 345.2-200.7 557.4-248.6 206.2-46.6 438-14.4 662.2 16.8 123.4 17.1 251 34.9 370.2 38.4 217.4 6.3 435.5-9.3 646.4-24.4 120-8.6 241.8-17.3 364.7-22.1v-9.8c-123.1 4.7-245.1 13.4-365.4 22.1-210.7 15.1-428.6 30.8-645.4 24.4-118.6-3.5-245.9-21.2-369.1-38.3-225-31.2-457.7-63.5-665.7-16.6-213.6 48.2-382 146.1-560.2 249.7-66.7 38.8-135.6 78.8-207 116-91 47.4-183.1 44.6-271.9 41.9-86.8-2.6-176.4-5.3-266.3 37.4-98.1 46.6-149.7 131.6-199.6 213.7-50.3 82.9-97.9 161.2-189 194.7-128.2 47.1-258.4-34.4-384.3-113.1-70.9-44.4-144.3-90.3-216-112-98-29.7-186.4-15.7-262.3 41.3-93.7 51.9-202.3 43.7-322.9-24.2C344.1 1230.7 176.4 1083 0 925.7v13.1z"/><path class="st1" d="M817 1266.2c74.7-57.4 160.9-71 256.4-40.4 72.8 23.4 146.3 73.9 217.4 122.9 100.2 69 203.1 139.8 309.7 139.8 26.2 0 52.2-4.4 76.9-13.1 97.8-34.2 150.9-114.5 207.2-199.5 54.2-81.9 110.2-166.5 210.5-210.5 88.9-39 175.7-31.7 259.6-24.6 89.4 7.6 181.9 15.3 277.3-32.4 73.9-36.9 146-77 215.6-115.8 186.5-103.8 362.7-201.9 580.4-249.8 202.8-44.6 430.1-13 649.9 17.5 126.7 17.6 257.6 35.8 379.9 38.4 217.9 4.6 436.4-14.1 647.7-32.3 113.3-9.7 228.1-19.5 343.9-25.9v-9.8c-116.1 6.4-231.2 16.2-344.8 25.9-211.1 18.1-429.5 36.8-646.7 32.2-121.6-2.6-252.3-20.7-378.7-38.3-220.7-30.7-448.9-62.4-653.4-17.4-219.1 48.2-395.9 146.6-583.1 250.8-69.6 38.7-141.5 78.8-215.2 115.6-93 46.5-184.1 38.8-272.1 31.4-85.1-7.2-173.1-14.6-264.3 25.4-102.9 45.1-159.7 131-214.7 214.1-55.3 83.6-107.6 162.5-202.3 195.6-129.6 45.3-255.8-41.6-377.8-125.6-71.7-49.3-145.8-100.4-220-124.1-98.7-31.6-188-17.5-264.8 41.6-92.5 53.2-199.9 45.7-319.2-22.5C322.2 1138.3 164.9 998.4 0 849v13.2c162.9 147.6 318.7 285.4 487.5 381.9 122.5 69.9 233.2 77.5 329.5 22.1z"/><path class="st1" d="M783.6 1165c75.8-59.9 163.2-73.9 259.8-41.8 75.7 25.2 150 81.1 221.9 135.2 98.6 74.1 199.9 150.3 308.2 150.3 24.4 0 48.6-3.9 71.7-11.6 101.5-33.5 159.6-114.4 221.2-200.1 59.6-82.9 121.2-168.7 226.6-211.2 90.5-36.5 175.4-24.2 257.6-12.3 88.3 12.8 179.5 26 277.5-20.8 77.6-37 153.9-77.8 227.7-117.1 185.6-99 377.4-201.4 599.3-248.9 198.7-42.6 420.9-11.1 635.8 19.2 129.6 18.3 263.6 37.3 388.7 39 218.1 3 436.8-18.8 648.3-39.8 106-10.5 213.4-21.2 321.8-28.9v-9.8c-108.7 7.7-216.4 18.4-322.8 29-211.3 21-430 42.8-647.2 39.8-124.4-1.7-258.1-20.6-387.4-38.9-215.7-30.5-438.7-62-639.2-19.1-223.2 47.8-415.7 150.5-601.8 249.9-73.7 39.3-149.9 80-227.3 116.9-95.3 45.5-181.1 33.1-271.9 19.9-83.4-12.1-169.8-24.6-262.7 12.9-108 43.6-170.5 130.5-230.9 214.6-60.6 84.3-117.8 164-216.3 196.5-131 43.2-253-48.5-370.9-137.2-72.5-54.5-147.5-110.9-224.7-136.6-99.9-33.2-190.3-18.6-268.4 43-91.6 55-198 48.4-316.3-19.7C301 1044.7 153.7 912.9 0 771.5v13.3c151.8 139.5 297.6 269.3 456.8 360.9 121.6 70 231.4 76.6 326.8 19.3z"/><path class="st1" d="M750.8 1042.6c80.3-29.7 163.4-60.4 266.1-26 78.9 26.4 154.2 87.9 227.1 147.4 96.8 79.1 196.4 160.5 306.5 160.5 22.6 0 45-3.5 66.6-10.2 102.8-31.8 170.6-118.7 236.2-202.7 66.8-85.6 136-174.2 243.2-209.8 89-29.6 171.2-13.5 250.7 1.9 88.9 17.3 180.9 35.2 282.7-9.8 87.6-38.7 174.4-84.7 258.4-129.2 185-98.1 376.4-199.4 598.8-236.8 195.3-32.8 408.4-3.9 614.4 24.2 133.8 18.2 272.2 37 401.9 38 218 1.4 436.6-23.1 648-47 98.3-11.1 197.9-22.3 298.3-31v-9.9c-100.8 8.6-200.7 19.9-299.4 31.1-211.2 23.9-429.5 48.4-646.8 47-129.1-.9-267.1-19.7-400.6-37.9-206.8-28.1-420.6-57.2-617.3-24.1-224 37.6-416 139.4-601.7 237.8-83.8 44.4-170.5 90.3-257.8 128.9-99 43.7-185.4 26.9-276.8 9.1-80.8-15.7-164.3-32-255.6-1.6-110.1 36.6-180.1 126.3-247.9 213s-131.6 168.5-231.4 199.4c-132.2 40.9-244.8-51.1-364-148.5-73.5-60.1-149.6-122.2-230.2-149.1-106-35.4-190.7-4.1-272.6 26.1-97 35.9-188.7 69.7-315.2 3.6C271 952.6 132.2 829.3 0 703.1v13.6c130.6 124.5 268 245.6 427.7 329.1 130.3 68.1 228.3 31.8 323.1-3.2z"/><path class="st1" d="M725.3 935.8c81.2-32 165.2-65 268.9-30.1 81.7 27.5 157.5 94.4 230.9 159.1 95.5 84.2 193.7 170.8 306.2 170.8 20.9 0 41.8-3 61.9-8.9 107-30.8 180.7-118.5 251.8-203.3 73-86.9 148.4-176.9 261.2-210.5 91.3-27.2 171.8-5.7 249.6 15.1 87 23.3 176.9 47.4 281.8 3.6 93.5-39 186.8-86.6 277-132.6 189.7-96.7 385.8-196.8 609.9-233 189.5-30.6 396.1-.9 595.8 27.7 136.2 19.6 277 39.8 409.1 40h4c216.2 0 433-27.4 642.7-53.9 90.2-11.4 181.4-22.9 273.4-32.3v-9.9c-92.4 9.6-184 21.1-274.6 32.5-209.4 26.4-425.9 53.8-641.4 53.8h-4c-131.3-.2-271.8-20.4-407.7-39.9-200.4-28.8-407.7-58.6-598.7-27.7-225.6 36.4-422.4 136.8-612.8 233.9-90 45.9-183.1 93.4-276.3 132.3-101.8 42.4-186.2 19.8-275.5-4.1-79.1-21.2-161-43.1-254.9-15.1-115.6 34.5-192 125.5-265.9 213.6-73.5 87.6-142.9 170.3-247.1 200.2-133.9 38.4-243.2-57.9-358.9-159.9-74.1-65.4-150.7-132.9-234.3-161-107.2-36.1-192.8-2.3-275.6 30.3-97.7 38.5-190 74.8-317.2 8.4C253.2 856 123.3 741.3 0 622.9v13.6c121.8 116.5 250.3 229 400 307.2 131.2 68.6 229.8 29.7 325.3-7.9z"/><path class="st1" d="M703 825.8c82.3-34.7 167.5-70.5 272.7-35.5 85 28.3 161.5 100.8 235.4 170.8 94 89 190.7 180.6 305.8 180.6 19.4 0 38.6-2.6 57.3-7.6 111.6-29.5 191.2-118.2 268.2-203.9 79.4-88.4 161.6-179.8 280.3-211.3 94.3-25 172.8 2.4 248.8 29 84.7 29.6 172.2 60.2 280.6 17.8 100.4-39.2 201-88.7 298.3-136.6 193.2-95 392.9-193.3 617.6-227.9 183.3-28.2 382.8 2.6 575.7 32.3 138 21.3 280.3 43.2 414.6 42.9 203.6-.6 410.6-32.7 610.8-63.7 92.6-14.3 186.3-28.8 280.6-40.3v-9.9c-94.9 11.6-189 26.1-282.1 40.5-199.8 30.9-406.4 62.9-609.3 63.5h-3.6c-132 0-273-21.8-409.4-42.8-193.7-29.9-393.9-60.7-578.7-32.3-226.2 34.8-426.6 133.4-620.5 228.8-97.1 47.8-197.5 97.2-297.5 136.2-105 41-187 12.4-273.7-18-77.3-27.1-157.3-55-254.5-29.2-121.5 32.2-204.7 124.7-285 214.2-79.6 88.6-154.7 172.2-263.4 201-135.7 36-241.7-64.4-353.8-170.7-74.8-70.8-152-144-239.1-173-108.7-36.2-195.6.4-279.6 35.7-98.8 41.6-192.1 80.9-320.8 14.3C236.5 757.6 114.9 651.4 0 540.9v13.6c113.5 108.7 233.6 212.7 373.9 285.3 132.7 68.7 232.5 26.6 329.1-14z"/><path class="st1" d="M5194.2 339c-198.3 33.3-403.4 67.7-604.9 69.1-133.6.9-277.6-23.2-416.3-46.6-186.3-31.3-379-63.8-557.3-37.9-225.9 32.8-428.8 129.3-625 222.6-109.8 52.2-213.5 101.5-321.1 140.6-108.6 39.4-187.8 4.5-271.6-32.5-75.4-33.2-153.3-67.7-254.4-44.2-129.1 30-217.9 121.8-303.8 210.6-80.9 83.7-164.5 170.2-282.2 206-139.6 42.5-259.1-77.4-374.6-193.3-74.3-74.5-144.4-144.8-218.4-172.6-110.2-41.4-199.3-.1-285.5 39.9-95.7 44.4-194.6 90.3-325 24.1C220.9 657.4 107.1 559.6 0 457v13.6C105.7 571.4 218.1 667 349.6 733.8c134.6 68.4 235.8 21.4 333.5-23.9 88.2-40.9 171.6-79.6 278-39.6 72 27 141.4 96.6 214.9 170.3 100.8 101 204.4 205 323.4 205 20.7 0 41.3-3.2 61.1-9.3 120.1-36.5 204.6-124 286.4-208.6 88.8-91.8 172.7-178.6 299-207.9 98-22.7 174.3 11 248.2 43.6 81.9 36.1 166.6 73.5 278.9 32.7 108.1-39.3 212-88.7 322-141 195.6-93 397.8-189.2 622.2-221.8 176.7-25.7 368.7 6.6 554.3 37.8 136.6 23 277.8 46.7 410.8 46.7h7.2c202.2-1.3 407.7-35.8 606.4-69.2 83.8-14.1 168.4-28.2 253.7-40.1v-9.9c-85.9 12-171.1 26.2-255.4 40.4z"/><path class="st1" d="M665.2 592.9c90.1-45.1 175.1-87.8 286.2-47.6 77.4 28 148.4 103.6 223.6 183.5 98.2 104.5 199.3 212.1 319.9 212.1 19.3 0 38.5-2.7 57-8 125.3-35.1 216.1-123.5 303.8-209 96.2-93.7 187.1-182.2 320.5-208.8 102.3-20.4 176.3 19.9 247.9 59 78.7 42.9 160.2 87.3 276.9 48.2s228.9-90.8 347.7-145.5c196.9-90.8 400.6-184.6 623.9-214.9 170-23 353.9 11.2 531.7 44.3 136.4 25.4 277.3 51.6 410.6 51.6h8.5c215-1.8 430.2-37.2 638.4-71.4 62-10.2 124.6-20.4 187.7-29.9v-9.9c-63.6 9.4-126.7 19.8-189.2 30-207.8 34.1-422.7 69.4-636.8 71.2-135.2 1.4-278.4-25.6-417.3-51.4-178.6-33.3-363.3-67.6-534.8-44.4-224.9 30.4-429.2 124.6-626.7 215.7C2926 522.4 2814 574 2697.8 612.9c-112.7 37.7-188.6-3.7-269.1-47.5-73.2-39.9-148.8-81.1-254.5-60-136.2 27.2-232.4 120.8-325.4 211.4-86.9 84.6-176.8 172.1-299.7 206.6-140.8 39.4-255.8-82.9-367.1-201.3-76-80.9-147.7-157.2-227.4-186-115-41.6-206 4-293.9 48-96.5 48.3-196.2 98.3-329.2 32.7C206.5 555.1 99.9 465.6 0 370.7v13.5c98.5 93.1 203.8 180.5 327.3 241.4 137.4 67.7 239.4 16.6 337.9-32.7z"/><path class="st1" d="M650.7 472.3c92.3-49.8 179.5-96.8 295.8-56.9 84.3 28.9 160.9 114.2 235.1 196.8 96.3 107.2 195.4 217.5 317.9 217.5 16.6 0 33.2-2 49.4-5.9 132-31.6 228.1-120.8 321-207.1 98.2-91.2 199.8-185.5 344.1-212.1 110.1-20.4 181.7 28 251.1 74.7 74.1 49.9 150.7 101.5 271.3 64.8 125.7-38.3 246.7-92.5 374.8-149.8 197.4-88.4 401.6-179.8 623.3-207.4 162.9-20.3 338.2 16.3 507.7 51.7 138.7 29 282.6 58.7 418.1 57.6 197.8-1.9 398.5-41 592.5-78.7 65-12.6 130.5-25.4 196.5-36.8v-10c-66.6 11.6-132.8 24.5-198.4 37.2-193.6 37.7-393.9 76.6-590.8 78.5-134.4 1.4-277.8-28.5-416-57.4-170.4-35.6-346.5-72.3-510.9-51.9-223.3 27.8-428 119.5-626.1 208.2-127.8 57.2-248.5 111.3-373.7 149.4-116.1 35.4-187.4-12.7-262.9-63.5-71-47.8-144.4-97.2-258.3-76.2-147.1 27.2-249.8 122.4-349 214.6-92 85.4-187.2 173.8-316.7 204.8-140.2 33.6-250.8-89.6-357.7-208.6-75-83.5-152.5-169.8-239.2-199.5-120.3-41.3-213.5 9-303.6 57.6-102 54.8-198.4 106.8-334.7 42.4C193.4 450.6 93.4 369.1 0 281.7v13.5c92 85.6 190.8 165 307.1 220 140.7 66.5 243.9 10.9 343.6-42.9z"/><path class="st1" d="M640.2 348.1c94.9-54.9 184.5-106.8 306.5-67.9 91.8 29.3 170 121.3 245.5 210.3 93.3 109.8 189.4 223 314.2 223 15.3 0 30.6-1.7 45.6-5 138.2-29.8 240.8-120.3 340-207.8 105.7-93.3 214.9-189.7 367.7-212.8 116-17.6 184.6 38 250.9 91.8 70.2 56.9 142.9 115.7 268.9 81.4 137.7-37.6 277.3-97.2 412.3-154.8 196.2-83.8 399.1-170.4 611.4-198.5 150.1-19.8 322.4 20.7 489.2 59.9 135.9 31.9 276.3 65 403.6 65h4.3c194.9-1.1 393.4-42.4 585.3-82.3 54.2-11.3 108.9-22.6 163.9-33.1v-10c-55.7 10.7-111 22.1-165.9 33.5-191.4 39.8-389.4 80.9-583.3 82.1h-4.2c-126.1 0-266-32.9-401.3-64.7-167.7-39.5-341.1-80.3-492.8-60.2-213.6 28.2-417.2 115.1-614 199.2-140.9 60.2-274 117-411 154.4-121.3 33.1-188.7-21.6-260.1-79.5-68-55.1-138.2-112.1-258.6-93.9-155.6 23.6-266 121-372.7 215.2-98.3 86.7-199.8 176.4-335.6 205.6-142 30.6-247.9-94.2-350.3-214.8-76.4-90-155.5-183.1-250-213.3-126.2-40.2-221.9 15.1-314.4 68.7-103.9 60.1-202 116.8-342.3 53.8-111.5-50.1-205.6-124-293-204.2v13.3C86.1 280.9 179.1 353 289 402.4c144.9 65.1 249.8 4.4 351.2-54.3z"/><path class="st1" d="M647.7 222.2C743.5 166 834 113 952.5 139.7c117.3 26.4 191.6 127.7 263.4 225.6 81 110.3 164.6 224.1 309.4 224.1 12 0 24.1-.8 36-2.3 147.5-18.1 259.4-114.4 367.7-207.7 111.8-96.3 227.4-195.8 384.6-214.5 122.9-14.5 188.1 48.6 251.2 109.7 65.9 63.9 134 129.9 266 98.6 147.9-35.2 298.1-97.8 443.3-158.3 195.1-81.3 396.8-165.4 604.8-190.2 141.7-16.9 304.7 26.9 462.3 69.2 135.3 36.4 275.1 73.5 402.3 73.5 191.3-.7 386-43.7 574.3-85.2 43.7-9.6 87.6-19.3 131.8-28.6v-10c-44.9 9.3-89.5 19.2-133.9 29-187.8 41.4-382 84.3-572.2 85h-2.3c-125.2 0-263.6-37.2-397.4-73.2-158.4-42.6-322.1-86.6-466-69.5-209.4 24.9-411.7 109.3-607.4 190.9-144.9 60.4-294.6 122.8-441.8 157.8-126.6 30.1-189.9-31.2-256.9-96.1-64.7-62.7-131.6-127.5-259.2-112.4-160.2 19-276.9 119.6-389.8 216.8-112.1 96.5-217.9 187.7-362.5 205.4-161.7 19.8-246.6-95.7-336.3-218C1151 260 1075.6 157.2 954.7 130c-122.3-27.4-218.7 29-311.9 83.7C536.4 276 426.4 340.5 277 278.1 171.3 233.9 82.2 167.1 0 93.7v13.1c81.1 71.7 169.1 136.7 273.3 180.3 153.8 64.4 266-1.4 374.4-64.9z"/><path class="st1" d="M1236.6 229.1c78.7 113.9 159.9 231.5 310.5 231.5 9.9 0 20.1-.5 30.7-1.6 154.4-15.4 273.1-113.4 387.9-208.2 119.7-98.8 243.5-201 410.4-215.3 130.8-11.2 192 59.8 251.3 128.4 61.4 71 124.9 144.5 263.1 116.3 158.3-32.2 318-97.4 472.4-160.5 103.9-42.4 209.6-85.5 317-119.8h-31.8c-97.8 32.7-194.2 72-289 110.7-154 62.9-313.3 127.9-470.7 160-132.7 27-191.5-41.1-253.8-113.1-61-70.5-124-143.5-259.5-131.8-170 14.6-294.9 117.8-415.8 217.6-118.9 98.1-231.2 190.9-382.6 206-164.7 16.5-246.1-101.2-332.2-225.8C1182.3 133.4 1118 40.8 1019 0h-29c111.1 33.2 179.9 132.6 246.6 229.1zM4789.7 100.5h6.4c190.4 0 381.5-44.2 566.4-87 19.4-4.5 39-9 58.5-13.5h-43.8l-17 3.9c-184.4 42.7-374.9 86.8-564.2 86.8h-6.3c-124.3-.6-259.6-42.6-390.5-83.3l-24-7.4h-33.4c18.2 5.5 36.4 11.1 54.5 16.8 131.6 40.9 267.7 83.1 393.4 83.7zM644.7 89.5C702.2 54 760.9 18 825.5 0H793c-54.1 19.9-104.3 50.7-153.5 81.1-114.7 70.7-222.9 137.6-376.1 79.1C166.1 123 83.3 65 7 0H0v6.9c77.2 65.8 161 124.7 260 162.5 157.6 60.2 273.1-11 384.7-79.9z"/><path class="st1" d="M570.6 0h-20c-94.2 52.6-188.7 85.3-297.8 39.8-27.8-11.5-54-25.1-79.7-39.8h-19.8C184 18.6 216 34.9 249 48.9 368.1 98.4 469.2 58.8 570.6 0zM1571.6 325.6c9.6 0 19.5-.5 29.7-1.4 163.2-15.2 287.8-115.1 408.3-211.8 48.5-38.9 97.6-78.2 149.7-112.4h-17.6c-47.8 32.4-93.3 68.7-138.2 104.7-119.4 95.7-242.8 194.7-403.1 209.6-169.5 15.8-245.7-104.6-326.4-232.1-17.5-27.7-35.2-55.6-54-82.3h-12.1c20.2 28.2 39.1 58 57.8 87.5 74.2 117.3 150.7 238.2 305.9 238.2zM4852.3 31.7c98.3 0 196.8-13 294.4-31.7h-55.1C5012 13.3 4932 21.9 4852.3 21.9c-4.2 0-8.5 0-12.8-.1-50.2-.6-101.9-9-154.1-21.8h-38.7c65.1 18.3 129.9 30.9 192.7 31.6 4.3.1 8.6.1 12.9.1zM2959.1 181.9c146.4-31.4 294.5-89.3 451.3-150.6 26.7-10.4 53.4-20.9 80.3-31.3h-27.1c-19 7.4-37.9 14.8-56.8 22.1-156.4 61.2-304.1 118.9-449.7 150.1-115.9 24.9-182.7-50.5-253.3-130.3-12.4-14.1-25-28.2-37.9-41.9h-13.6c15.1 15.7 29.7 32.1 44.1 48.4 72.6 82 141.1 159.6 262.7 133.5z"/><path class="st1" d="M3036.7 77.9c91.8-16.8 184-44.8 278.3-77.9h-30c-84.6 28.9-167.6 53.1-250.1 68.2-81.3 14.9-136.6-18.1-184.6-68.2h-13.5c51.2 55.9 109.9 94.3 199.9 77.9zM1608.7 183.1c7.6 0 15.5-.3 23.5-.8 153.3-10.9 275.7-94 391.8-182.2h-16.3c-111.9 84.4-230.3 162.1-376.3 172.4-141.8 10-216.9-71.1-282.4-172.4h-11.6c63 97.8 137.5 183 271.3 183z"/><path class="st1" d="M1671 33c55.8-2.7 107.9-14.7 157.3-33h-30.4c-41.3 13.2-84.1 21-127.4 23.2-50.4 2.4-92.1-6.5-128-23.2h-21.2c37 20.9 80.4 33.4 132.9 33.4 5.4 0 11-.1 16.8-.4z"/></g></svg>